<?xml version="1.0" encoding="UTF-8" standalone="no"?><svg xmlns="http://www.w3.org/2000/svg" xmlns:xlink="http://www.w3.org/1999/xlink" contentScriptType="application/ecmascript" contentStyleType="text/css" height="1042px" preserveAspectRatio="none" style="width:725px;height:1042px;background:#F5F5F5;" version="1.1" viewBox="0 0 725 1042" width="725px" zoomAndPan="magnify"><defs><filter height="300%" id="f1myol3bkai1u6" width="300%" x="-1" y="-1"><feGaussianBlur result="blurOut" stdDeviation="2.0"/><feColorMatrix in="blurOut" result="blurOut2" type="matrix" values="0 0 0 0 0 0 0 0 0 0 0 0 0 0 0 0 0 0 .4 0"/><feOffset dx="4.0" dy="4.0" in="blurOut2" result="blurOut3"/><feBlend in="SourceGraphic" in2="blurOut3" mode="normal"/></filter></defs><g><text fill="#888888" font-family="sans-serif" font-size="10" lengthAdjust="spacing" textLength="61" x="651.5" y="9.668">@ReionChan</text><text fill="#000000" font-family="sans-serif" font-size="20" lengthAdjust="spacing" textLength="149" x="281.75" y="31.1133">Mapping Model</text><!--MD5=[c86ce95fe6226f2d2796c0513d8e83fe]
class Engine--><rect codeLine="9" fill="#FEFECE" filter="url(#f1myol3bkai1u6)" height="60.9551" id="Engine" style="stroke:#A80036;stroke-width:1.5;" width="231" x="9" y="254.332"/><ellipse cx="101.25" cy="270.332" fill="#B4A7E5" rx="11" ry="11" style="stroke:#A80036;stroke-width:1.0;"/><path d="M97.6777,266.5972 L97.6777,264.439 L105.0571,264.439 L105.0571,266.5972 L102.5918,266.5972 L102.5918,274.6738 L105.0571,274.6738 L105.0571,276.832 L97.6777,276.832 L97.6777,274.6738 L100.1431,274.6738 L100.1431,266.5972 Z " fill="#000000"/><text fill="#000000" font-family="sans-serif" font-size="12" font-style="italic" lengthAdjust="spacing" textLength="38" x="121.75" y="274.8672">Engine</text><line style="stroke:#A80036;stroke-width:1.5;" x1="10" x2="239" y1="286.332" y2="286.332"/><polygon fill="none" points="20,292.332,24,296.332,20,300.332,16,296.332" style="stroke:#B38D22;stroke-width:1.0;"/><text fill="#000000" font-family="sans-serif" font-size="11" lengthAdjust="spacing" textLength="205" x="29" y="300.9668">HashMap&lt;String, Container&gt; children</text><line style="stroke:#A80036;stroke-width:1.5;" x1="10" x2="239" y1="307.2871" y2="307.2871"/><!--MD5=[c62846c0c9715c1d98dd5933e5913037]
class Host--><rect codeLine="12" fill="#FEFECE" filter="url(#f1myol3bkai1u6)" height="60.9551" id="Host" style="stroke:#A80036;stroke-width:1.5;" width="231" x="61" y="407.832"/><ellipse cx="159.25" cy="423.832" fill="#B4A7E5" rx="11" ry="11" style="stroke:#A80036;stroke-width:1.0;"/><path d="M155.6777,420.0972 L155.6777,417.939 L163.0571,417.939 L163.0571,420.0972 L160.5918,420.0972 L160.5918,428.1738 L163.0571,428.1738 L163.0571,430.332 L155.6777,430.332 L155.6777,428.1738 L158.1431,428.1738 L158.1431,420.0972 Z " fill="#000000"/><text fill="#000000" font-family="sans-serif" font-size="12" font-style="italic" lengthAdjust="spacing" textLength="26" x="179.75" y="428.3672">Host</text><line style="stroke:#A80036;stroke-width:1.5;" x1="62" x2="291" y1="439.832" y2="439.832"/><polygon fill="none" points="72,445.832,76,449.832,72,453.832,68,449.832" style="stroke:#B38D22;stroke-width:1.0;"/><text fill="#000000" font-family="sans-serif" font-size="11" lengthAdjust="spacing" textLength="205" x="81" y="454.4668">HashMap&lt;String, Container&gt; children</text><line style="stroke:#A80036;stroke-width:1.5;" x1="62" x2="291" y1="460.7871" y2="460.7871"/><!--MD5=[6754354365917abf8f1a56af1b7e344c]
class Context--><rect codeLine="15" fill="#FEFECE" filter="url(#f1myol3bkai1u6)" height="60.9551" id="Context" style="stroke:#A80036;stroke-width:1.5;" width="231" x="61" y="803.332"/><ellipse cx="150.25" cy="819.332" fill="#B4A7E5" rx="11" ry="11" style="stroke:#A80036;stroke-width:1.0;"/><path d="M146.6777,815.5972 L146.6777,813.439 L154.0571,813.439 L154.0571,815.5972 L151.5918,815.5972 L151.5918,823.6738 L154.0571,823.6738 L154.0571,825.832 L146.6777,825.832 L146.6777,823.6738 L149.1431,823.6738 L149.1431,815.5972 Z " fill="#000000"/><text fill="#000000" font-family="sans-serif" font-size="12" font-style="italic" lengthAdjust="spacing" textLength="44" x="170.75" y="823.8672">Context</text><line style="stroke:#A80036;stroke-width:1.5;" x1="62" x2="291" y1="835.332" y2="835.332"/><polygon fill="none" points="72,841.332,76,845.332,72,849.332,68,845.332" style="stroke:#B38D22;stroke-width:1.0;"/><text fill="#000000" font-family="sans-serif" font-size="11" lengthAdjust="spacing" textLength="205" x="81" y="849.9668">HashMap&lt;String, Container&gt; children</text><line style="stroke:#A80036;stroke-width:1.5;" x1="62" x2="291" y1="856.2871" y2="856.2871"/><!--MD5=[354495e11b5abab1b1401337b6fa44d1]
class Wrapper--><rect codeLine="18" fill="#FEFECE" filter="url(#f1myol3bkai1u6)" height="60.9551" id="Wrapper" style="stroke:#A80036;stroke-width:1.5;" width="231" x="85" y="950.332"/><ellipse cx="171.25" cy="966.332" fill="#B4A7E5" rx="11" ry="11" style="stroke:#A80036;stroke-width:1.0;"/><path d="M167.6777,962.5972 L167.6777,960.439 L175.0571,960.439 L175.0571,962.5972 L172.5918,962.5972 L172.5918,970.6738 L175.0571,970.6738 L175.0571,972.832 L167.6777,972.832 L167.6777,970.6738 L170.1431,970.6738 L170.1431,962.5972 Z " fill="#000000"/><text fill="#000000" font-family="sans-serif" font-size="12" font-style="italic" lengthAdjust="spacing" textLength="50" x="191.75" y="970.8672">Wrapper</text><line style="stroke:#A80036;stroke-width:1.5;" x1="86" x2="315" y1="982.332" y2="982.332"/><polygon fill="none" points="96,988.332,100,992.332,96,996.332,92,992.332" style="stroke:#B38D22;stroke-width:1.0;"/><text fill="#000000" font-family="sans-serif" font-size="11" lengthAdjust="spacing" textLength="205" x="105" y="996.9668">HashMap&lt;String, Container&gt; children</text><line style="stroke:#A80036;stroke-width:1.5;" x1="86" x2="315" y1="1003.2871" y2="1003.2871"/><!--MD5=[b44d2f6c3b900de9021ae143b40d281a]
class StandardService--><rect codeLine="22" fill="#FEFECE" filter="url(#f1myol3bkai1u6)" height="86.8652" id="StandardService" style="stroke:#A80036;stroke-width:1.5;" width="196" x="166.5" y="61.832"/><ellipse cx="214.25" cy="77.832" fill="#ADD1B2" rx="11" ry="11" style="stroke:#A80036;stroke-width:1.0;"/><path d="M216.7231,83.9751 Q216.1421,84.2739 215.5029,84.4233 Q214.8638,84.5728 214.1582,84.5728 Q211.6514,84.5728 210.3315,82.9209 Q209.0117,81.269 209.0117,78.1479 Q209.0117,75.0186 210.3315,73.3667 Q211.6514,71.7148 214.1582,71.7148 Q214.8638,71.7148 215.5112,71.8643 Q216.1587,72.0137 216.7231,72.3125 L216.7231,75.0352 Q216.0923,74.4541 215.4988,74.1843 Q214.9053,73.9146 214.2744,73.9146 Q212.9297,73.9146 212.2449,74.9812 Q211.5601,76.0479 211.5601,78.1479 Q211.5601,80.2397 212.2449,81.3064 Q212.9297,82.373 214.2744,82.373 Q214.9053,82.373 215.4988,82.1033 Q216.0923,81.8335 216.7231,81.2524 Z " fill="#000000"/><text fill="#000000" font-family="sans-serif" font-size="12" lengthAdjust="spacing" textLength="92" x="234.75" y="82.3672">StandardService</text><line style="stroke:#A80036;stroke-width:1.5;" x1="167.5" x2="361.5" y1="93.832" y2="93.832"/><rect fill="none" height="6" style="stroke:#C82930;stroke-width:1.0;" width="6" x="174.5" y="101.832"/><text fill="#000000" font-family="sans-serif" font-size="11" lengthAdjust="spacing" textLength="75" x="186.5" y="108.4668">Engine engine</text><polygon fill="none" points="177.5,112.7871,181.5,116.7871,177.5,120.7871,173.5,116.7871" style="stroke:#B38D22;stroke-width:1.0;"/><text fill="#000000" font-family="sans-serif" font-size="11" lengthAdjust="spacing" textLength="84" x="186.5" y="121.4219">Mapper mapper</text><polygon fill="none" points="177.5,125.7422,181.5,129.7422,177.5,133.7422,173.5,129.7422" style="stroke:#B38D22;stroke-width:1.0;"/><text fill="#000000" font-family="sans-serif" font-size="11" lengthAdjust="spacing" textLength="170" x="186.5" y="134.377">MapperListener mapperListener</text><line style="stroke:#A80036;stroke-width:1.5;" x1="167.5" x2="361.5" y1="140.6973" y2="140.6973"/><!--MD5=[085457430d2356209d15d1291460c965]
class Mapper--><rect codeLine="28" fill="#FEFECE" filter="url(#f1myol3bkai1u6)" height="112.7754" id="Mapper" style="stroke:#A80036;stroke-width:1.5;" width="436" x="275.5" y="228.332"/><ellipse cx="466.75" cy="244.332" fill="#ADD1B2" rx="11" ry="11" style="stroke:#A80036;stroke-width:1.0;"/><path d="M469.2231,250.4751 Q468.6421,250.7739 468.0029,250.9233 Q467.3638,251.0728 466.6582,251.0728 Q464.1514,251.0728 462.8315,249.4209 Q461.5117,247.769 461.5117,244.6479 Q461.5117,241.5186 462.8315,239.8667 Q464.1514,238.2148 466.6582,238.2148 Q467.3638,238.2148 468.0112,238.3643 Q468.6587,238.5137 469.2231,238.8125 L469.2231,241.5352 Q468.5923,240.9541 467.9988,240.6843 Q467.4053,240.4146 466.7744,240.4146 Q465.4297,240.4146 464.7449,241.4812 Q464.0601,242.5479 464.0601,244.6479 Q464.0601,246.7397 464.7449,247.8064 Q465.4297,248.873 466.7744,248.873 Q467.4053,248.873 467.9988,248.6033 Q468.5923,248.3335 469.2231,247.7524 Z " fill="#000000"/><text fill="#000000" font-family="sans-serif" font-size="12" lengthAdjust="spacing" textLength="45" x="487.25" y="248.8672">Mapper</text><line style="stroke:#A80036;stroke-width:1.5;" x1="276.5" x2="710.5" y1="260.332" y2="260.332"/><polygon fill="none" points="286.5,267.332,282.5,273.332,290.5,273.332" style="stroke:#1963A0;stroke-width:1.0;"/><text fill="#000000" font-family="sans-serif" font-size="11" lengthAdjust="spacing" textLength="108" x="295.5" y="274.9668">MappedHost[] hosts</text><line style="stroke:#A80036;stroke-width:1.5;" x1="276.5" x2="710.5" y1="281.2871" y2="281.2871"/><ellipse cx="286.5" cy="292.2871" fill="#84BE84" rx="3" ry="3" style="stroke:#038048;stroke-width:1.0;"/><text fill="#000000" font-family="sans-serif" font-size="11" lengthAdjust="spacing" textLength="331" x="295.5" y="295.9219">void addWrappers(hostName, contextPath, version, wrappers)</text><polygon fill="#FFFF44" points="286.5,300.2422,290.5,304.2422,286.5,308.2422,282.5,304.2422" style="stroke:#B38D22;stroke-width:1.0;"/><text fill="#000000" font-family="sans-serif" font-size="11" lengthAdjust="spacing" textLength="410" x="295.5" y="308.877">void addWrapper(contextVersion, path, wrapper, jspWildCard, resourceOnly)</text><ellipse cx="286.5" cy="318.1973" fill="#84BE84" rx="3" ry="3" style="stroke:#038048;stroke-width:1.0;"/><text fill="#000000" font-family="sans-serif" font-size="11" lengthAdjust="spacing" textLength="196" x="295.5" y="321.832">void map(context, uri, mappingData)</text><ellipse cx="286.5" cy="331.1523" fill="#84BE84" rx="3" ry="3" style="stroke:#038048;stroke-width:1.0;"/><text fill="#000000" font-family="sans-serif" font-size="11" lengthAdjust="spacing" textLength="225" x="295.5" y="334.7871">void map(host, uri, version, mappingData)</text><!--MD5=[bad0b3f649cc93fb5874624a61c020da]
class MapperListener--><rect codeLine="36" fill="#FEFECE" filter="url(#f1myol3bkai1u6)" height="125.7305" id="MapperListener" style="stroke:#A80036;stroke-width:1.5;" width="191" x="398" y="42.332"/><ellipse cx="444.25" cy="58.332" fill="#ADD1B2" rx="11" ry="11" style="stroke:#A80036;stroke-width:1.0;"/><path d="M446.7231,64.4751 Q446.1421,64.7739 445.5029,64.9233 Q444.8638,65.0728 444.1582,65.0728 Q441.6514,65.0728 440.3315,63.4209 Q439.0117,61.769 439.0117,58.6479 Q439.0117,55.5186 440.3315,53.8667 Q441.6514,52.2148 444.1582,52.2148 Q444.8638,52.2148 445.5112,52.3643 Q446.1587,52.5137 446.7231,52.8125 L446.7231,55.5352 Q446.0923,54.9541 445.4988,54.6843 Q444.9053,54.4146 444.2744,54.4146 Q442.9297,54.4146 442.2449,55.4812 Q441.5601,56.5479 441.5601,58.6479 Q441.5601,60.7397 442.2449,61.8064 Q442.9297,62.873 444.2744,62.873 Q444.9053,62.873 445.4988,62.6033 Q446.0923,62.3335 446.7231,61.7524 Z " fill="#000000"/><text fill="#000000" font-family="sans-serif" font-size="12" lengthAdjust="spacing" textLength="90" x="464.75" y="62.8672">MapperListener</text><line style="stroke:#A80036;stroke-width:1.5;" x1="399" x2="588" y1="74.332" y2="74.332"/><rect fill="none" height="6" style="stroke:#C82930;stroke-width:1.0;" width="6" x="406" y="82.332"/><text fill="#000000" font-family="sans-serif" font-size="11" lengthAdjust="spacing" textLength="79" x="418" y="88.9668">Service service</text><rect fill="none" height="6" style="stroke:#C82930;stroke-width:1.0;" width="6" x="406" y="95.2871"/><text fill="#000000" font-family="sans-serif" font-size="11" lengthAdjust="spacing" textLength="84" x="418" y="101.9219">Mapper mapper</text><line style="stroke:#A80036;stroke-width:1.5;" x1="399" x2="588" y1="108.2422" y2="108.2422"/><ellipse cx="409" cy="119.2422" fill="#84BE84" rx="3" ry="3" style="stroke:#038048;stroke-width:1.0;"/><text fill="#000000" font-family="sans-serif" font-size="11" lengthAdjust="spacing" textLength="100" x="418" y="122.877">void startInternal()</text><rect fill="#F24D5C" height="6" style="stroke:#C82930;stroke-width:1.0;" width="6" x="406" y="129.1973"/><text fill="#000000" font-family="sans-serif" font-size="11" lengthAdjust="spacing" textLength="125" x="418" y="135.832">void registerHost(host)</text><rect fill="#F24D5C" height="6" style="stroke:#C82930;stroke-width:1.0;" width="6" x="406" y="142.1523"/><text fill="#000000" font-family="sans-serif" font-size="11" lengthAdjust="spacing" textLength="160" x="418" y="148.7871">void registerContext(context)</text><rect fill="#F24D5C" height="6" style="stroke:#C82930;stroke-width:1.0;" width="6" x="406" y="155.1074"/><text fill="#000000" font-family="sans-serif" font-size="11" lengthAdjust="spacing" textLength="165" x="418" y="161.7422">void registerWrapper(wrapper)</text><!--MD5=[4fcb9c5410d6b0fde066a403cb9bd9f7]
class MappedHost--><rect codeLine="45" fill="#FEFECE" filter="url(#f1myol3bkai1u6)" height="73.9102" id="MappedHost" style="stroke:#A80036;stroke-width:1.5;" width="151" x="366" y="401.332"/><ellipse cx="401.25" cy="417.332" fill="#ADD1B2" rx="11" ry="11" style="stroke:#A80036;stroke-width:1.0;"/><path d="M403.7231,423.4751 Q403.1421,423.7739 402.5029,423.9233 Q401.8638,424.0728 401.1582,424.0728 Q398.6514,424.0728 397.3315,422.4209 Q396.0117,420.769 396.0117,417.6479 Q396.0117,414.5186 397.3315,412.8667 Q398.6514,411.2148 401.1582,411.2148 Q401.8638,411.2148 402.5112,411.3643 Q403.1587,411.5137 403.7231,411.8125 L403.7231,414.5352 Q403.0923,413.9541 402.4988,413.6843 Q401.9053,413.4146 401.2744,413.4146 Q399.9297,413.4146 399.2449,414.4812 Q398.5601,415.5479 398.5601,417.6479 Q398.5601,419.7397 399.2449,420.8064 Q399.9297,421.873 401.2744,421.873 Q401.9053,421.873 402.4988,421.6033 Q403.0923,421.3335 403.7231,420.7524 Z " fill="#000000"/><text fill="#000000" font-family="sans-serif" font-size="12" lengthAdjust="spacing" textLength="74" x="419.75" y="421.8672">MappedHost</text><line style="stroke:#A80036;stroke-width:1.5;" x1="367" x2="516" y1="433.332" y2="433.332"/><ellipse cx="377" cy="444.332" fill="none" rx="3" ry="3" style="stroke:#038048;stroke-width:1.0;"/><text fill="#000000" font-family="sans-serif" font-size="11" lengthAdjust="spacing" textLength="61" x="386" y="447.9668">Host object</text><ellipse cx="377" cy="457.2871" fill="none" rx="3" ry="3" style="stroke:#038048;stroke-width:1.0;"/><text fill="#000000" font-family="sans-serif" font-size="11" lengthAdjust="spacing" textLength="125" x="386" y="460.9219">ContextList contextList</text><line style="stroke:#A80036;stroke-width:1.5;" x1="367" x2="516" y1="467.2422" y2="467.2422"/><!--MD5=[7271aea6e10d0c02a3259bf8d6a2206c]
class ContextList--><rect codeLine="50" fill="#FEFECE" filter="url(#f1myol3bkai1u6)" height="60.9551" id="ContextList" style="stroke:#A80036;stroke-width:1.5;" width="169" x="357" y="535.332"/><ellipse cx="405.75" cy="551.332" fill="#ADD1B2" rx="11" ry="11" style="stroke:#A80036;stroke-width:1.0;"/><path d="M408.2231,557.4751 Q407.6421,557.7739 407.0029,557.9233 Q406.3638,558.0728 405.6582,558.0728 Q403.1514,558.0728 401.8315,556.4209 Q400.5117,554.769 400.5117,551.6479 Q400.5117,548.5186 401.8315,546.8667 Q403.1514,545.2148 405.6582,545.2148 Q406.3638,545.2148 407.0112,545.3643 Q407.6587,545.5137 408.2231,545.8125 L408.2231,548.5352 Q407.5923,547.9541 406.9988,547.6843 Q406.4053,547.4146 405.7744,547.4146 Q404.4297,547.4146 403.7449,548.4812 Q403.0601,549.5479 403.0601,551.6479 Q403.0601,553.7397 403.7449,554.8064 Q404.4297,555.873 405.7744,555.873 Q406.4053,555.873 406.9988,555.6033 Q407.5923,555.3335 408.2231,554.7524 Z " fill="#000000"/><text fill="#000000" font-family="sans-serif" font-size="12" lengthAdjust="spacing" textLength="63" x="426.25" y="555.8672">ContextList</text><line style="stroke:#A80036;stroke-width:1.5;" x1="358" x2="525" y1="567.332" y2="567.332"/><ellipse cx="368" cy="578.332" fill="none" rx="3" ry="3" style="stroke:#038048;stroke-width:1.0;"/><text fill="#000000" font-family="sans-serif" font-size="11" lengthAdjust="spacing" textLength="143" x="377" y="581.9668">MappedContext[] contexts</text><line style="stroke:#A80036;stroke-width:1.5;" x1="358" x2="525" y1="588.2871" y2="588.2871"/><!--MD5=[290249316a25dacb014de4b64ef1938a]
class MappedContext--><rect codeLine="54" fill="#FEFECE" filter="url(#f1myol3bkai1u6)" height="60.9551" id="MappedContext" style="stroke:#A80036;stroke-width:1.5;" width="167" x="358" y="656.332"/><ellipse cx="392.35" cy="672.332" fill="#ADD1B2" rx="11" ry="11" style="stroke:#A80036;stroke-width:1.0;"/><path d="M394.8231,678.4751 Q394.2421,678.7739 393.6029,678.9233 Q392.9638,679.0728 392.2582,679.0728 Q389.7514,679.0728 388.4315,677.4209 Q387.1117,675.769 387.1117,672.6479 Q387.1117,669.5186 388.4315,667.8667 Q389.7514,666.2148 392.2582,666.2148 Q392.9638,666.2148 393.6112,666.3643 Q394.2587,666.5137 394.8231,666.8125 L394.8231,669.5352 Q394.1923,668.9541 393.5988,668.6843 Q393.0053,668.4146 392.3744,668.4146 Q391.0297,668.4146 390.3449,669.4812 Q389.6601,670.5479 389.6601,672.6479 Q389.6601,674.7397 390.3449,675.8064 Q391.0297,676.873 392.3744,676.873 Q393.0053,676.873 393.5988,676.6033 Q394.1923,676.3335 394.8231,675.7524 Z " fill="#000000"/><text fill="#000000" font-family="sans-serif" font-size="12" lengthAdjust="spacing" textLength="92" x="410.65" y="676.8672">MappedContext</text><line style="stroke:#A80036;stroke-width:1.5;" x1="359" x2="524" y1="688.332" y2="688.332"/><ellipse cx="369" cy="699.332" fill="none" rx="3" ry="3" style="stroke:#038048;stroke-width:1.0;"/><text fill="#000000" font-family="sans-serif" font-size="11" lengthAdjust="spacing" textLength="141" x="378" y="702.9668">ContextVersion[] versions</text><line style="stroke:#A80036;stroke-width:1.5;" x1="359" x2="524" y1="709.2871" y2="709.2871"/><!--MD5=[6a37b9ce9fd03bcf1f5a295005bd67bb]
class ContextVersion--><rect codeLine="58" fill="#FEFECE" filter="url(#f1myol3bkai1u6)" height="112.7754" id="ContextVersion" style="stroke:#A80036;stroke-width:1.5;" width="228" x="327.5" y="777.332"/><ellipse cx="393.75" cy="793.332" fill="#ADD1B2" rx="11" ry="11" style="stroke:#A80036;stroke-width:1.0;"/><path d="M396.2231,799.4751 Q395.6421,799.7739 395.0029,799.9233 Q394.3638,800.0728 393.6582,800.0728 Q391.1514,800.0728 389.8315,798.4209 Q388.5117,796.769 388.5117,793.6479 Q388.5117,790.5186 389.8315,788.8667 Q391.1514,787.2148 393.6582,787.2148 Q394.3638,787.2148 395.0112,787.3643 Q395.6587,787.5137 396.2231,787.8125 L396.2231,790.5352 Q395.5923,789.9541 394.9988,789.6843 Q394.4053,789.4146 393.7744,789.4146 Q392.4297,789.4146 391.7449,790.4812 Q391.0601,791.5479 391.0601,793.6479 Q391.0601,795.7397 391.7449,796.8064 Q392.4297,797.873 393.7744,797.873 Q394.4053,797.873 394.9988,797.6033 Q395.5923,797.3335 396.2231,796.7524 Z " fill="#000000"/><text fill="#000000" font-family="sans-serif" font-size="12" lengthAdjust="spacing" textLength="87" x="414.25" y="797.8672">ContextVersion</text><line style="stroke:#A80036;stroke-width:1.5;" x1="328.5" x2="554.5" y1="809.332" y2="809.332"/><ellipse cx="338.5" cy="820.332" fill="none" rx="3" ry="3" style="stroke:#038048;stroke-width:1.0;"/><text fill="#000000" font-family="sans-serif" font-size="11" lengthAdjust="spacing" textLength="79" x="347.5" y="823.9668">Context object</text><ellipse cx="338.5" cy="833.2871" fill="none" rx="3" ry="3" style="stroke:#038048;stroke-width:1.0;"/><text fill="#000000" font-family="sans-serif" font-size="11" lengthAdjust="spacing" textLength="172" x="347.5" y="836.9219">MappedWrapper defaultWrapper</text><ellipse cx="338.5" cy="846.2422" fill="none" rx="3" ry="3" style="stroke:#038048;stroke-width:1.0;"/><text fill="#000000" font-family="sans-serif" font-size="11" lengthAdjust="spacing" textLength="178" x="347.5" y="849.877">MappedWrapper[] exactWrappers</text><ellipse cx="338.5" cy="859.1973" fill="none" rx="3" ry="3" style="stroke:#038048;stroke-width:1.0;"/><text fill="#000000" font-family="sans-serif" font-size="11" lengthAdjust="spacing" textLength="194" x="347.5" y="862.832">MappedWrapper[] wildcardWrappers</text><ellipse cx="338.5" cy="872.1523" fill="none" rx="3" ry="3" style="stroke:#038048;stroke-width:1.0;"/><text fill="#000000" font-family="sans-serif" font-size="11" lengthAdjust="spacing" textLength="202" x="347.5" y="875.7871">MappedWrapper[] extensionWrappers</text><line style="stroke:#A80036;stroke-width:1.5;" x1="328.5" x2="554.5" y1="882.1074" y2="882.1074"/><!--MD5=[e0c265c31e4cb25648f9f610ac1afb48]
class MappedWrapper--><rect codeLine="66" fill="#FEFECE" filter="url(#f1myol3bkai1u6)" height="60.9551" id="MappedWrapper" style="stroke:#A80036;stroke-width:1.5;" width="130" x="363.5" y="950.332"/><ellipse cx="378.5" cy="966.332" fill="#ADD1B2" rx="11" ry="11" style="stroke:#A80036;stroke-width:1.0;"/><path d="M380.9731,972.4751 Q380.3921,972.7739 379.7529,972.9233 Q379.1138,973.0728 378.4082,973.0728 Q375.9014,973.0728 374.5815,971.4209 Q373.2617,969.769 373.2617,966.6479 Q373.2617,963.5186 374.5815,961.8667 Q375.9014,960.2148 378.4082,960.2148 Q379.1138,960.2148 379.7612,960.3643 Q380.4087,960.5137 380.9731,960.8125 L380.9731,963.5352 Q380.3423,962.9541 379.7488,962.6843 Q379.1553,962.4146 378.5244,962.4146 Q377.1797,962.4146 376.4949,963.4812 Q375.8101,964.5479 375.8101,966.6479 Q375.8101,968.7397 376.4949,969.8064 Q377.1797,970.873 378.5244,970.873 Q379.1553,970.873 379.7488,970.6033 Q380.3423,970.3335 380.9731,969.7524 Z " fill="#000000"/><text fill="#000000" font-family="sans-serif" font-size="12" lengthAdjust="spacing" textLength="98" x="392.5" y="970.8672">MappedWrapper</text><line style="stroke:#A80036;stroke-width:1.5;" x1="364.5" x2="492.5" y1="982.332" y2="982.332"/><ellipse cx="374.5" cy="993.332" fill="none" rx="3" ry="3" style="stroke:#038048;stroke-width:1.0;"/><text fill="#000000" font-family="sans-serif" font-size="11" lengthAdjust="spacing" textLength="81" x="383.5" y="996.9668">Wrapper object</text><line style="stroke:#A80036;stroke-width:1.5;" x1="364.5" x2="492.5" y1="1003.2871" y2="1003.2871"/><!--MD5=[98bb180911a056be26bade86a9b788fa]
link StandardService to MapperListener--><path codeLine="70" d="M376,105.332 C378.85,105.332 385.84,105.332 385.84,105.332 " fill="none" id="StandardService-MapperListener" style="stroke:#A80036;stroke-width:1.0;"/><polygon fill="#A80036" points="397.84,105.332,391.84,101.332,385.84,105.332,391.84,109.332,397.84,105.332" style="stroke:#A80036;stroke-width:1.0;"/><polygon fill="#A80036" points="362.9,105.332,371.9,109.332,367.9,105.332,371.9,101.332,362.9,105.332" style="stroke:#A80036;stroke-width:1.0;"/><line style="stroke:#A80036;stroke-width:1.0;" x1="367.9" x2="375.9" y1="105.332" y2="105.332"/><text fill="#000000" font-family="sans-serif" font-size="13" lengthAdjust="spacing" textLength="8" x="370.42" y="102.366">1</text><text fill="#000000" font-family="sans-serif" font-size="13" lengthAdjust="spacing" textLength="8" x="381.8983" y="102.3258">1</text><!--MD5=[8642239cec428789b47b9331bf93ce71]
link MapperListener to Mapper--><path codeLine="71" d="M493.5,180.412 C493.5,180.412 493.5,204.082 493.5,215.112 " fill="none" id="MapperListener-Mapper" style="stroke:#A80036;stroke-width:1.0;"/><polygon fill="#A80036" points="493.5,228.302,497.5,219.302,493.5,223.302,489.5,219.302,493.5,228.302" style="stroke:#A80036;stroke-width:1.0;"/><line style="stroke:#A80036;stroke-width:1.0;" x1="493.5" x2="493.5" y1="223.302" y2="215.302"/><polygon fill="#A80036" points="493.5,168.412,489.5,174.412,493.5,180.412,497.5,174.412,493.5,168.412" style="stroke:#A80036;stroke-width:1.0;"/><text fill="#000000" font-family="sans-serif" font-size="13" lengthAdjust="spacing" textLength="8" x="485.0625" y="188.7318">1</text><text fill="#000000" font-family="sans-serif" font-size="13" lengthAdjust="spacing" textLength="8" x="484.9875" y="217.7008">1</text><!--MD5=[207308fcd3e0e49a72125ffcb0927e11]
link StandardService to Mapper--><path codeLine="72" d="M328.8414,156.1947 C328.8414,156.1947 384.43,199.292 411.24,220.072 " fill="none" id="StandardService-Mapper" style="stroke:#A80036;stroke-width:1.0;"/><polygon fill="#A80036" points="421.76,228.222,417.089,219.5513,417.8053,225.1626,412.1939,225.8789,421.76,228.222" style="stroke:#A80036;stroke-width:1.0;"/><line style="stroke:#A80036;stroke-width:1.0;" x1="417.8053" x2="411.485" y1="225.1626" y2="220.262"/><polygon fill="#A80036" points="319.35,148.852,321.6481,155.6871,328.8414,156.1947,326.5432,149.3596,319.35,148.852" style="stroke:#A80036;stroke-width:1.0;"/><text fill="#000000" font-family="sans-serif" font-size="13" lengthAdjust="spacing" textLength="8" x="319.1364" y="169.2669">1</text><text fill="#000000" font-family="sans-serif" font-size="13" lengthAdjust="spacing" textLength="8" x="404.0558" y="217.6106">1</text><!--MD5=[e37c0258afba30d805ae9075cb73721e]
link StandardService to Engine--><path codeLine="73" d="M223.5462,158.2801 C223.5462,158.2801 175.75,218.862 155.98,243.912 " fill="none" id="StandardService-Engine" style="stroke:#A80036;stroke-width:1.0;"/><polygon fill="#A80036" points="147.91,254.152,156.6236,249.5615,151.0059,250.2258,150.3416,244.6081,147.91,254.152" style="stroke:#A80036;stroke-width:1.0;"/><line style="stroke:#A80036;stroke-width:1.0;" x1="151.0059" x2="155.96" y1="250.2258" y2="243.947"/><polygon fill="#A80036" points="230.97,148.852,224.1154,151.0915,223.5462,158.2801,230.4008,156.0406,230.97,148.852" style="stroke:#A80036;stroke-width:1.0;"/><text fill="#000000" font-family="sans-serif" font-size="13" lengthAdjust="spacing" textLength="8" x="217.2232" y="169.2669">1</text><text fill="#000000" font-family="sans-serif" font-size="13" lengthAdjust="spacing" textLength="8" x="144.1559" y="243.4074">1</text><!--MD5=[3490f355e5fbc3d328da3c4a4e4d7efd]
link Engine to Host--><path codeLine="74" d="M138.5436,326.7528 C138.5436,326.7528 154.83,374.202 162.03,395.162 " fill="none" id="Engine-Host" style="stroke:#A80036;stroke-width:1.0;"/><polygon fill="#A80036" points="166.29,407.582,167.1467,397.7705,164.6644,402.8537,159.5813,400.3714,166.29,407.582" style="stroke:#A80036;stroke-width:1.0;"/><line style="stroke:#A80036;stroke-width:1.0;" x1="164.6644" x2="162.065" y1="402.8537" y2="395.282"/><polygon fill="#A80036" points="134.65,315.402,132.8132,322.3753,138.5436,326.7528,140.3804,319.7796,134.65,315.402" style="stroke:#A80036;stroke-width:1.0;"/><text fill="#000000" font-family="sans-serif" font-size="13" lengthAdjust="spacing" textLength="8" x="127.9184" y="335.859">1</text><text fill="#000000" font-family="sans-serif" font-size="13" lengthAdjust="spacing" textLength="6" x="157.5654" y="397.298">*</text><!--MD5=[63ea617fc6bbc5a8abbd0db1d3105cc5]
link Mapper to MappedHost--><path codeLine="75" d="M470.5287,352.7301 C470.5287,352.7301 462.05,377.462 458.24,388.562 " fill="none" id="Mapper-MappedHost" style="stroke:#A80036;stroke-width:1.0;"/><polygon fill="#A80036" points="453.93,401.122,460.6338,393.9068,455.5523,396.3925,453.0666,391.3111,453.93,401.122" style="stroke:#A80036;stroke-width:1.0;"/><line style="stroke:#A80036;stroke-width:1.0;" x1="455.5523" x2="458.15" y1="396.3925" y2="388.827"/><polygon fill="#A80036" points="474.43,341.382,468.6966,345.7556,470.5287,352.7301,476.262,348.3565,474.43,341.382" style="stroke:#A80036;stroke-width:1.0;"/><text fill="#000000" font-family="sans-serif" font-size="13" lengthAdjust="spacing" textLength="8" x="463.6183" y="361.7891">1</text><text fill="#000000" font-family="sans-serif" font-size="13" lengthAdjust="spacing" textLength="6" x="449.6687" y="390.4839">*</text><!--MD5=[6c51eeaecfda86d0a216572cac29de13]
link Host to MappedHost--><path codeLine="76" d="M305.44,438.332 C321.2,438.332 353.96,438.332 353.96,438.332 " fill="none" id="Host-MappedHost" style="stroke:#A80036;stroke-width:1.0;"/><polygon fill="#A80036" points="365.96,438.332,359.96,434.332,353.96,438.332,359.96,442.332,365.96,438.332" style="stroke:#A80036;stroke-width:1.0;"/><polygon fill="#A80036" points="292.18,438.332,301.18,442.332,297.18,438.332,301.18,434.332,292.18,438.332" style="stroke:#A80036;stroke-width:1.0;"/><line style="stroke:#A80036;stroke-width:1.0;" x1="297.18" x2="305.18" y1="438.332" y2="438.332"/><text fill="#000000" font-family="sans-serif" font-size="13" lengthAdjust="spacing" textLength="8" x="299.847" y="435.4313">1</text><text fill="#000000" font-family="sans-serif" font-size="13" lengthAdjust="spacing" textLength="8" x="349.7574" y="435.1476">1</text><!--MD5=[a33ecf45314c7703627e3cb28ca9e33e]
link Host to Context--><path codeLine="77" d="M176.5,480.912 C176.5,480.912 176.5,714.352 176.5,790.032 " fill="none" id="Host-Context" style="stroke:#A80036;stroke-width:1.0;"/><polygon fill="#A80036" points="176.5,803.182,180.5,794.182,176.5,798.182,172.5,794.182,176.5,803.182" style="stroke:#A80036;stroke-width:1.0;"/><line style="stroke:#A80036;stroke-width:1.0;" x1="176.5" x2="176.5" y1="798.182" y2="790.182"/><polygon fill="#A80036" points="176.5,468.912,172.5,474.912,176.5,480.912,180.5,474.912,176.5,468.912" style="stroke:#A80036;stroke-width:1.0;"/><text fill="#000000" font-family="sans-serif" font-size="13" lengthAdjust="spacing" textLength="8" x="167.675" y="489.371">1</text><text fill="#000000" font-family="sans-serif" font-size="13" lengthAdjust="spacing" textLength="6" x="169.8438" y="792.444">*</text><!--MD5=[ceb955bdf0297f5ec28e4d7140d0c99d]
link MappedHost to ContextList--><path codeLine="78" d="M441.5,487.632 C441.5,487.632 441.5,511.122 441.5,521.672 " fill="none" id="MappedHost-ContextList" style="stroke:#A80036;stroke-width:1.0;"/><polygon fill="#A80036" points="441.5,534.952,445.5,525.952,441.5,529.952,437.5,525.952,441.5,534.952" style="stroke:#A80036;stroke-width:1.0;"/><line style="stroke:#A80036;stroke-width:1.0;" x1="441.5" x2="441.5" y1="529.952" y2="521.952"/><polygon fill="#A80036" points="441.5,475.632,437.5,481.632,441.5,487.632,445.5,481.632,441.5,475.632" style="stroke:#A80036;stroke-width:1.0;"/><text fill="#000000" font-family="sans-serif" font-size="13" lengthAdjust="spacing" textLength="8" x="432.8125" y="495.9348">1</text><text fill="#000000" font-family="sans-serif" font-size="13" lengthAdjust="spacing" textLength="8" x="432.675" y="524.6412">1</text><!--MD5=[9c9e45610a003dafb802af4fae7bd59a]
link ContextList to MappedContext--><path codeLine="79" d="M441.5,608.552 C441.5,608.552 441.5,632.042 441.5,642.882 " fill="none" id="ContextList-MappedContext" style="stroke:#A80036;stroke-width:1.0;"/><polygon fill="#A80036" points="441.5,656.072,445.5,647.072,441.5,651.072,437.5,647.072,441.5,656.072" style="stroke:#A80036;stroke-width:1.0;"/><line style="stroke:#A80036;stroke-width:1.0;" x1="441.5" x2="441.5" y1="651.072" y2="643.072"/><polygon fill="#A80036" points="441.5,596.552,437.5,602.552,441.5,608.552,445.5,602.552,441.5,596.552" style="stroke:#A80036;stroke-width:1.0;"/><text fill="#000000" font-family="sans-serif" font-size="13" lengthAdjust="spacing" textLength="8" x="432.675" y="617.0399">1</text><text fill="#000000" font-family="sans-serif" font-size="13" lengthAdjust="spacing" textLength="6" x="434.8813" y="645.7859">*</text><!--MD5=[b847d86a88bd167a5273a79e7c687f5d]
link MappedContext to ContextVersion--><path codeLine="80" d="M441.5,729.522 C441.5,729.522 441.5,752.622 441.5,763.932 " fill="none" id="MappedContext-ContextVersion" style="stroke:#A80036;stroke-width:1.0;"/><polygon fill="#A80036" points="441.5,777.082,445.5,768.082,441.5,772.082,437.5,768.082,441.5,777.082" style="stroke:#A80036;stroke-width:1.0;"/><line style="stroke:#A80036;stroke-width:1.0;" x1="441.5" x2="441.5" y1="772.082" y2="764.082"/><polygon fill="#A80036" points="441.5,717.522,437.5,723.522,441.5,729.522,445.5,723.522,441.5,717.522" style="stroke:#A80036;stroke-width:1.0;"/><text fill="#000000" font-family="sans-serif" font-size="13" lengthAdjust="spacing" textLength="8" x="432.675" y="738.0037">1</text><text fill="#000000" font-family="sans-serif" font-size="13" lengthAdjust="spacing" textLength="6" x="435.1156" y="766.4526">*</text><!--MD5=[99cbf6db280941c16a11d6fdf15ca577]
link Context to ContextVersion--><path codeLine="81" d="M305.41,833.832 C308.4,833.832 315.47,833.832 315.47,833.832 " fill="none" id="Context-ContextVersion" style="stroke:#A80036;stroke-width:1.0;"/><polygon fill="#A80036" points="327.47,833.832,321.47,829.832,315.47,833.832,321.47,837.832,327.47,833.832" style="stroke:#A80036;stroke-width:1.0;"/><polygon fill="#A80036" points="292.18,833.832,301.18,837.832,297.18,833.832,301.18,829.832,292.18,833.832" style="stroke:#A80036;stroke-width:1.0;"/><line style="stroke:#A80036;stroke-width:1.0;" x1="297.18" x2="305.18" y1="833.832" y2="833.832"/><text fill="#000000" font-family="sans-serif" font-size="13" lengthAdjust="spacing" textLength="8" x="299.847" y="830.9313">1</text><text fill="#000000" font-family="sans-serif" font-size="13" lengthAdjust="spacing" textLength="8" x="311.5399" y="830.9145">1</text><!--MD5=[d5a63641acc07b4fd505a05d5cd25e05]
link ContextVersion to MappedWrapper--><path codeLine="82" d="M435.4414,902.4344 C435.4414,902.4344 433.29,926.412 432.35,936.932 " fill="none" id="ContextVersion-MappedWrapper" style="stroke:#A80036;stroke-width:1.0;"/><polygon fill="#A80036" points="431.17,950.082,435.9555,941.474,431.6152,945.1019,427.9873,940.7616,431.17,950.082" style="stroke:#A80036;stroke-width:1.0;"/><line style="stroke:#A80036;stroke-width:1.0;" x1="431.6152" x2="432.33" y1="945.1019" y2="937.137"/><polygon fill="#A80036" points="436.51,890.482,431.9916,896.102,435.4414,902.4344,439.9598,896.8144,436.51,890.482" style="stroke:#A80036;stroke-width:1.0;"/><text fill="#000000" font-family="sans-serif" font-size="13" lengthAdjust="spacing" textLength="8" x="427.4705" y="910.4987">1</text><text fill="#000000" font-family="sans-serif" font-size="13" lengthAdjust="spacing" textLength="6" x="425.1019" y="939.798">*</text><!--MD5=[f28d0f889cfc3cd876c3ed4692ba0339]
link Context to Wrapper--><path codeLine="83" d="M183.3614,876.3623 C183.3614,876.3623 190.33,918.402 193.44,937.172 " fill="none" id="Context-Wrapper" style="stroke:#A80036;stroke-width:1.0;"/><polygon fill="#A80036" points="195.59,950.182,198.0732,940.6514,194.7769,945.2486,190.1797,941.9523,195.59,950.182" style="stroke:#A80036;stroke-width:1.0;"/><line style="stroke:#A80036;stroke-width:1.0;" x1="194.7769" x2="193.47" y1="945.2486" y2="937.352"/><polygon fill="#A80036" points="181.41,864.522,178.4389,871.0926,183.3614,876.3623,186.3325,869.7917,181.41,864.522" style="stroke:#A80036;stroke-width:1.0;"/><text fill="#000000" font-family="sans-serif" font-size="13" lengthAdjust="spacing" textLength="8" x="173.5977" y="885.0037">1</text><text fill="#000000" font-family="sans-serif" font-size="13" lengthAdjust="spacing" textLength="6" x="187.8597" y="939.444">*</text><!--MD5=[094a1a35a1e5f11677941027544f352a]
link Wrapper to MappedWrapper--><path codeLine="84" d="M329.47,980.832 C336.32,980.832 351.19,980.832 351.19,980.832 " fill="none" id="Wrapper-MappedWrapper" style="stroke:#A80036;stroke-width:1.0;"/><polygon fill="#A80036" points="363.19,980.832,357.19,976.832,351.19,980.832,357.19,984.832,363.19,980.832" style="stroke:#A80036;stroke-width:1.0;"/><polygon fill="#A80036" points="316.28,980.832,325.28,984.832,321.28,980.832,325.28,976.832,316.28,980.832" style="stroke:#A80036;stroke-width:1.0;"/><line style="stroke:#A80036;stroke-width:1.0;" x1="321.28" x2="329.28" y1="980.832" y2="980.832"/><text fill="#000000" font-family="sans-serif" font-size="13" lengthAdjust="spacing" textLength="8" x="323.9534" y="977.9313">1</text><text fill="#000000" font-family="sans-serif" font-size="13" lengthAdjust="spacing" textLength="8" x="347.6092" y="977.5995">1</text><text fill="#888888" font-family="sans-serif" font-size="10" lengthAdjust="spacing" textLength="61" x="325.75" y="1033.9551">@ReionChan</text></g></svg>