<?xml version="1.0" encoding="UTF-8" standalone="no"?><svg xmlns="http://www.w3.org/2000/svg" xmlns:xlink="http://www.w3.org/1999/xlink" contentScriptType="application/ecmascript" contentStyleType="text/css" height="450px" preserveAspectRatio="none" style="width:763px;height:450px;background:#F5F5F5;" version="1.1" viewBox="0 0 763 450" width="763px" zoomAndPan="magnify"><defs><filter height="300%" id="frfzpapsr1dw9" width="300%" x="-1" y="-1"><feGaussianBlur result="blurOut" stdDeviation="2.0"/><feColorMatrix in="blurOut" result="blurOut2" type="matrix" values="0 0 0 0 0 0 0 0 0 0 0 0 0 0 0 0 0 0 .4 0"/><feOffset dx="4.0" dy="4.0" in="blurOut2" result="blurOut3"/><feBlend in="SourceGraphic" in2="blurOut3" mode="normal"/></filter></defs><g><text fill="#888888" font-family="sans-serif" font-size="10" lengthAdjust="spacing" textLength="61" x="689" y="9.668">@ReionChan</text><text fill="#000000" font-family="sans-serif" font-size="30" lengthAdjust="spacing" textLength="358" x="196" y="40.7813">Tomcat Container Model</text><!--MD5=[1f013897acc61321e559b8d554925b12]
cluster Tomcat Container--><rect fill="#F5F5F5" filter="url(#frfzpapsr1dw9)" height="365" style="stroke:#000000;stroke-width:1.5;" width="742" x="7" y="54.1094"/><rect fill="#F5F5F5" height="10" style="stroke:#000000;stroke-width:1.5;" width="15" x="729" y="59.1094"/><rect fill="#F5F5F5" height="2" style="stroke:#000000;stroke-width:1.5;" width="4" x="727" y="61.1094"/><rect fill="#F5F5F5" height="2" style="stroke:#000000;stroke-width:1.5;" width="4" x="727" y="65.1094"/><text fill="#000000" font-family="sans-serif" font-size="14" font-weight="bold" lengthAdjust="spacing" textLength="129" x="313.5" y="80.6445">Tomcat Container</text><!--MD5=[1354d4287b836671d015041ce990275d]
cluster Engine--><rect fill="#E0FFFF" filter="url(#frfzpapsr1dw9)" height="298" style="stroke:#000000;stroke-width:1.5;" width="694" x="31" y="97.1094"/><path d="M89,97.1094 L89,106.5977 L79,116.5977 L31,116.5977 " fill="none" style="stroke:#000000;stroke-width:1.5;"/><text fill="#000000" font-family="sans-serif" font-size="14" font-weight="bold" lengthAdjust="spacing" textLength="48" x="34" y="111.6445">Engine</text><!--MD5=[c018863fe2304e0ca952616611326b6e]
cluster Host--><rect fill="#00FFFF" filter="url(#frfzpapsr1dw9)" height="231" style="stroke:#000000;stroke-width:1.5;" width="646" x="55" y="140.1094"/><path d="M99,140.1094 L99,149.5977 L89,159.5977 L55,159.5977 " fill="none" style="stroke:#000000;stroke-width:1.5;"/><text fill="#000000" font-family="sans-serif" font-size="14" font-weight="bold" lengthAdjust="spacing" textLength="34" x="58" y="154.6445">Host</text><!--MD5=[6239a4b47f185af075b7dfb58fa2d2ce]
cluster Servlet Container--><rect fill="#FFFFFF" filter="url(#frfzpapsr1dw9)" height="164" style="stroke:#000000;stroke-width:1.5;" width="598" x="79" y="183.1094"/><rect fill="#FFFFFF" height="10" style="stroke:#000000;stroke-width:1.5;" width="15" x="657" y="188.1094"/><rect fill="#FFFFFF" height="2" style="stroke:#000000;stroke-width:1.5;" width="4" x="655" y="190.1094"/><rect fill="#FFFFFF" height="2" style="stroke:#000000;stroke-width:1.5;" width="4" x="655" y="194.1094"/><text fill="#000000" font-family="sans-serif" font-size="14" font-weight="bold" lengthAdjust="spacing" textLength="124" x="316" y="209.6445">Servlet Container</text><!--MD5=[6862c24bc6e5c39ba3bfe8cd1cee46c2]
cluster Context 1--><rect fill="#FFA500" filter="url(#frfzpapsr1dw9)" height="97" style="stroke:#000000;stroke-width:1.5;" width="263" x="390" y="226.1094"/><path d="M470,226.1094 L470,235.5977 L460,245.5977 L390,245.5977 " fill="none" style="stroke:#000000;stroke-width:1.5;"/><text fill="#000000" font-family="sans-serif" font-size="14" font-weight="bold" lengthAdjust="spacing" textLength="70" x="393" y="240.6445">Context 1</text><!--MD5=[b9f988de41b8055bdf1987ce5dd17b55]
cluster Context 2--><rect fill="#FFA500" filter="url(#frfzpapsr1dw9)" height="97" style="stroke:#000000;stroke-width:1.5;" width="263" x="103" y="226.1094"/><path d="M183,226.1094 L183,235.5977 L173,245.5977 L103,245.5977 " fill="none" style="stroke:#000000;stroke-width:1.5;"/><text fill="#000000" font-family="sans-serif" font-size="14" font-weight="bold" lengthAdjust="spacing" textLength="70" x="106" y="240.6445">Context 2</text><!--MD5=[945bb76cb2232b12ba90c731e52d4c9b]
entity w1--><rect fill="#FEFECE" filter="url(#frfzpapsr1dw9)" height="46.4883" style="stroke:#A80036;stroke-width:1.5;" width="98" x="539" y="261.1094"/><rect fill="#FEFECE" height="10" style="stroke:#A80036;stroke-width:1.5;" width="15" x="617" y="266.1094"/><rect fill="#FEFECE" height="2" style="stroke:#A80036;stroke-width:1.5;" width="4" x="615" y="268.1094"/><rect fill="#FEFECE" height="2" style="stroke:#A80036;stroke-width:1.5;" width="4" x="615" y="272.1094"/><text fill="#000000" font-family="sans-serif" font-size="14" lengthAdjust="spacing" textLength="58" x="554" y="294.6445">Wrapper</text><!--MD5=[cde18378286e59c32eb7d59844b99053]
entity w2--><rect fill="#FEFECE" filter="url(#frfzpapsr1dw9)" height="46.4883" style="stroke:#A80036;stroke-width:1.5;" width="98" x="406" y="261.1094"/><rect fill="#FEFECE" height="10" style="stroke:#A80036;stroke-width:1.5;" width="15" x="484" y="266.1094"/><rect fill="#FEFECE" height="2" style="stroke:#A80036;stroke-width:1.5;" width="4" x="482" y="268.1094"/><rect fill="#FEFECE" height="2" style="stroke:#A80036;stroke-width:1.5;" width="4" x="482" y="272.1094"/><text fill="#000000" font-family="sans-serif" font-size="14" lengthAdjust="spacing" textLength="58" x="421" y="294.6445">Wrapper</text><!--MD5=[2322ab33e6c9753bb453b1a15e4f0394]
entity w3--><rect fill="#FEFECE" filter="url(#frfzpapsr1dw9)" height="46.4883" style="stroke:#A80036;stroke-width:1.5;" width="98" x="252" y="261.1094"/><rect fill="#FEFECE" height="10" style="stroke:#A80036;stroke-width:1.5;" width="15" x="330" y="266.1094"/><rect fill="#FEFECE" height="2" style="stroke:#A80036;stroke-width:1.5;" width="4" x="328" y="268.1094"/><rect fill="#FEFECE" height="2" style="stroke:#A80036;stroke-width:1.5;" width="4" x="328" y="272.1094"/><text fill="#000000" font-family="sans-serif" font-size="14" lengthAdjust="spacing" textLength="58" x="267" y="294.6445">Wrapper</text><!--MD5=[468a629c903ddd36905aa005fa5e2dbe]
entity w4--><rect fill="#FEFECE" filter="url(#frfzpapsr1dw9)" height="46.4883" style="stroke:#A80036;stroke-width:1.5;" width="98" x="119" y="261.1094"/><rect fill="#FEFECE" height="10" style="stroke:#A80036;stroke-width:1.5;" width="15" x="197" y="266.1094"/><rect fill="#FEFECE" height="2" style="stroke:#A80036;stroke-width:1.5;" width="4" x="195" y="268.1094"/><rect fill="#FEFECE" height="2" style="stroke:#A80036;stroke-width:1.5;" width="4" x="195" y="272.1094"/><text fill="#000000" font-family="sans-serif" font-size="14" lengthAdjust="spacing" textLength="58" x="134" y="294.6445">Wrapper</text><text fill="#888888" font-family="sans-serif" font-size="10" lengthAdjust="spacing" textLength="61" x="344.5" y="441.7773">@ReionChan</text></g></svg>