<?xml version="1.0" encoding="UTF-8" standalone="no"?><svg xmlns="http://www.w3.org/2000/svg" xmlns:xlink="http://www.w3.org/1999/xlink" contentScriptType="application/ecmascript" contentStyleType="text/css" height="1994px" preserveAspectRatio="none" style="width:970px;height:1994px;background:#F5F5F5;" version="1.1" viewBox="0 0 970 1994" width="970px" zoomAndPan="magnify"><defs><filter height="300%" id="fjk7v7ire3exl" width="300%" x="-1" y="-1"><feGaussianBlur result="blurOut" stdDeviation="2.0"/><feColorMatrix in="blurOut" result="blurOut2" type="matrix" values="0 0 0 0 0 0 0 0 0 0 0 0 0 0 0 0 0 0 .4 0"/><feOffset dx="4.0" dy="4.0" in="blurOut2" result="blurOut3"/><feBlend in="SourceGraphic" in2="blurOut3" mode="normal"/></filter></defs><g><text fill="#000000" font-family="sans-serif" font-size="28" lengthAdjust="spacing" textLength="451" x="256.25" y="53.8477">Servlet Container Starting Process</text><rect fill="#FFFFFF" filter="url(#fjk7v7ire3exl)" height="1563.7695" style="stroke:#A80036;stroke-width:1.0;" width="10" x="32.5" y="112.2422"/><rect fill="#FFFFFF" filter="url(#fjk7v7ire3exl)" height="214.8633" style="stroke:#A80036;stroke-width:1.0;" width="10" x="32.5" y="1705.3223"/><rect fill="#FFFFFF" filter="url(#fjk7v7ire3exl)" height="1268.9746" style="stroke:#A80036;stroke-width:1.0;" width="10" x="123.5" y="133.5527"/><rect fill="#FFFFFF" filter="url(#fjk7v7ire3exl)" height="244.1738" style="stroke:#A80036;stroke-width:1.0;" width="10" x="123.5" y="1431.8379"/><rect fill="#FFFFFF" filter="url(#fjk7v7ire3exl)" height="175.7949" style="stroke:#A80036;stroke-width:1.0;" width="10" x="249.5" y="1226.7324"/><rect fill="#FFFFFF" filter="url(#fjk7v7ire3exl)" height="186.1738" style="stroke:#A80036;stroke-width:1.0;" width="10" x="344.5" y="205.1738"/><rect fill="#FFFFFF" filter="url(#fjk7v7ire3exl)" height="495.2793" style="stroke:#A80036;stroke-width:1.0;" width="10" x="344.5" y="428.6582"/><rect fill="#FFFFFF" filter="url(#fjk7v7ire3exl)" height="244.1738" style="stroke:#A80036;stroke-width:1.0;" width="10" x="344.5" y="953.248"/><rect fill="#FFFFFF" filter="url(#fjk7v7ire3exl)" height="114.5527" style="stroke:#A80036;stroke-width:1.0;" width="10" x="508.5" y="276.7949"/><rect fill="#FFFFFF" filter="url(#fjk7v7ire3exl)" height="72.0869" style="stroke:#A80036;stroke-width:1.0;" width="10" x="508.5" y="462.9688"/><rect fill="#FFFFFF" filter="url(#fjk7v7ire3exl)" height="315.7949" style="stroke:#A80036;stroke-width:1.0;" width="10" x="663.5" y="608.1426"/><rect fill="#FFFFFF" filter="url(#fjk7v7ire3exl)" height="214.8633" style="stroke:#A80036;stroke-width:1.0;" width="10" x="763.5" y="679.7637"/><rect fill="#FFFFFF" filter="url(#fjk7v7ire3exl)" height="214.8633" style="stroke:#A80036;stroke-width:1.0;" width="10" x="763.5" y="953.248"/><rect fill="#FFFFFF" filter="url(#fjk7v7ire3exl)" height="214.8633" style="stroke:#A80036;stroke-width:1.0;" width="10" x="763.5" y="1431.8379"/><rect fill="#FFFFFF" filter="url(#fjk7v7ire3exl)" height="214.8633" style="stroke:#A80036;stroke-width:1.0;" width="10" x="763.5" y="1705.3223"/><rect fill="#FFFFFF" filter="url(#fjk7v7ire3exl)" height="113.9316" style="stroke:#A80036;stroke-width:1.0;" width="10" x="863.5" y="751.3848"/><rect fill="#FFFFFF" filter="url(#fjk7v7ire3exl)" height="113.9316" style="stroke:#A80036;stroke-width:1.0;" width="10" x="863.5" y="1024.8691"/><rect fill="#FFFFFF" filter="url(#fjk7v7ire3exl)" height="113.9316" style="stroke:#A80036;stroke-width:1.0;" width="10" x="863.5" y="1503.459"/><rect fill="#FFFFFF" filter="url(#fjk7v7ire3exl)" height="113.9316" style="stroke:#A80036;stroke-width:1.0;" width="10" x="863.5" y="1776.9434"/><line style="stroke:#A80036;stroke-width:1.0;stroke-dasharray:5.0,5.0;" x1="37" x2="37" y1="102.2422" y2="1938.1855"/><line style="stroke:#A80036;stroke-width:1.0;stroke-dasharray:5.0,5.0;" x1="128" x2="128" y1="102.2422" y2="1938.1855"/><line style="stroke:#A80036;stroke-width:1.0;stroke-dasharray:5.0,5.0;" x1="254" x2="254" y1="102.2422" y2="1938.1855"/><line style="stroke:#A80036;stroke-width:1.0;stroke-dasharray:5.0,5.0;" x1="349" x2="349" y1="102.2422" y2="1938.1855"/><line style="stroke:#A80036;stroke-width:1.0;stroke-dasharray:5.0,5.0;" x1="513" x2="513" y1="102.2422" y2="1938.1855"/><line style="stroke:#A80036;stroke-width:1.0;stroke-dasharray:5.0,5.0;" x1="668.5" x2="668.5" y1="102.2422" y2="1938.1855"/><line style="stroke:#A80036;stroke-width:1.0;stroke-dasharray:5.0,5.0;" x1="768.5" x2="768.5" y1="102.2422" y2="1938.1855"/><line style="stroke:#A80036;stroke-width:1.0;stroke-dasharray:5.0,5.0;" x1="868.5" x2="868.5" y1="102.2422" y2="1938.1855"/><rect fill="#FEFECE" filter="url(#fjk7v7ire3exl)" height="30.4883" style="stroke:#A80036;stroke-width:1.5;" width="61" x="5" y="66.7539"/><text fill="#000000" font-family="sans-serif" font-size="14" lengthAdjust="spacing" textLength="47" x="12" y="87.2891">Engine</text><rect fill="#FEFECE" filter="url(#fjk7v7ire3exl)" height="30.4883" style="stroke:#A80036;stroke-width:1.5;" width="61" x="5" y="1937.1855"/><text fill="#000000" font-family="sans-serif" font-size="14" lengthAdjust="spacing" textLength="47" x="12" y="1957.7207">Engine</text><rect fill="#FEFECE" filter="url(#fjk7v7ire3exl)" height="30.4883" style="stroke:#A80036;stroke-width:1.5;" width="45" x="104" y="66.7539"/><text fill="#000000" font-family="sans-serif" font-size="14" lengthAdjust="spacing" textLength="31" x="111" y="87.2891">Host</text><rect fill="#FEFECE" filter="url(#fjk7v7ire3exl)" height="30.4883" style="stroke:#A80036;stroke-width:1.5;" width="45" x="104" y="1937.1855"/><text fill="#000000" font-family="sans-serif" font-size="14" lengthAdjust="spacing" textLength="31" x="111" y="1957.7207">Host</text><rect fill="#FEFECE" filter="url(#fjk7v7ire3exl)" height="30.4883" style="stroke:#A80036;stroke-width:1.5;" width="91" x="207" y="66.7539"/><text fill="#000000" font-family="sans-serif" font-size="14" lengthAdjust="spacing" textLength="77" x="214" y="87.2891">HostConfig</text><rect fill="#FEFECE" filter="url(#fjk7v7ire3exl)" height="30.4883" style="stroke:#A80036;stroke-width:1.5;" width="91" x="207" y="1937.1855"/><text fill="#000000" font-family="sans-serif" font-size="14" lengthAdjust="spacing" textLength="77" x="214" y="1957.7207">HostConfig</text><rect fill="#FEFECE" filter="url(#fjk7v7ire3exl)" height="30.4883" style="stroke:#A80036;stroke-width:1.5;" width="69" x="313" y="66.7539"/><text fill="#000000" font-family="sans-serif" font-size="14" lengthAdjust="spacing" textLength="55" x="320" y="87.2891">Context</text><rect fill="#FEFECE" filter="url(#fjk7v7ire3exl)" height="30.4883" style="stroke:#A80036;stroke-width:1.5;" width="69" x="313" y="1937.1855"/><text fill="#000000" font-family="sans-serif" font-size="14" lengthAdjust="spacing" textLength="55" x="320" y="1957.7207">Context</text><rect fill="#FEFECE" filter="url(#fjk7v7ire3exl)" height="30.4883" style="stroke:#A80036;stroke-width:1.5;" width="115" x="454" y="66.7539"/><text fill="#000000" font-family="sans-serif" font-size="14" lengthAdjust="spacing" textLength="101" x="461" y="87.2891">ContextConfig</text><rect fill="#FEFECE" filter="url(#fjk7v7ire3exl)" height="30.4883" style="stroke:#A80036;stroke-width:1.5;" width="115" x="454" y="1937.1855"/><text fill="#000000" font-family="sans-serif" font-size="14" lengthAdjust="spacing" textLength="101" x="461" y="1957.7207">ContextConfig</text><rect fill="#FEFECE" filter="url(#fjk7v7ire3exl)" height="30.4883" style="stroke:#A80036;stroke-width:1.5;" width="72" x="630.5" y="66.7539"/><text fill="#000000" font-family="sans-serif" font-size="14" lengthAdjust="spacing" textLength="58" x="637.5" y="87.2891">Wrapper</text><rect fill="#FEFECE" filter="url(#fjk7v7ire3exl)" height="30.4883" style="stroke:#A80036;stroke-width:1.5;" width="72" x="630.5" y="1937.1855"/><text fill="#000000" font-family="sans-serif" font-size="14" lengthAdjust="spacing" textLength="58" x="637.5" y="1957.7207">Wrapper</text><rect fill="#FEFECE" filter="url(#fjk7v7ire3exl)" height="30.4883" style="stroke:#A80036;stroke-width:1.5;" width="68" x="732.5" y="66.7539"/><text fill="#000000" font-family="sans-serif" font-size="14" lengthAdjust="spacing" textLength="54" x="739.5" y="87.2891">Pipeline</text><rect fill="#FEFECE" filter="url(#fjk7v7ire3exl)" height="30.4883" style="stroke:#A80036;stroke-width:1.5;" width="68" x="732.5" y="1937.1855"/><text fill="#000000" font-family="sans-serif" font-size="14" lengthAdjust="spacing" textLength="54" x="739.5" y="1957.7207">Pipeline</text><rect fill="#FEFECE" filter="url(#fjk7v7ire3exl)" height="30.4883" style="stroke:#A80036;stroke-width:1.5;" width="50" x="841.5" y="66.7539"/><text fill="#000000" font-family="sans-serif" font-size="14" lengthAdjust="spacing" textLength="36" x="848.5" y="87.2891">Valve</text><rect fill="#FEFECE" filter="url(#fjk7v7ire3exl)" height="30.4883" style="stroke:#A80036;stroke-width:1.5;" width="50" x="841.5" y="1937.1855"/><text fill="#000000" font-family="sans-serif" font-size="14" lengthAdjust="spacing" textLength="36" x="848.5" y="1957.7207">Valve</text><rect fill="#FFFFFF" filter="url(#fjk7v7ire3exl)" height="1563.7695" style="stroke:#A80036;stroke-width:1.0;" width="10" x="32.5" y="112.2422"/><rect fill="#FFFFFF" filter="url(#fjk7v7ire3exl)" height="214.8633" style="stroke:#A80036;stroke-width:1.0;" width="10" x="32.5" y="1705.3223"/><rect fill="#FFFFFF" filter="url(#fjk7v7ire3exl)" height="1268.9746" style="stroke:#A80036;stroke-width:1.0;" width="10" x="123.5" y="133.5527"/><rect fill="#FFFFFF" filter="url(#fjk7v7ire3exl)" height="244.1738" style="stroke:#A80036;stroke-width:1.0;" width="10" x="123.5" y="1431.8379"/><rect fill="#FFFFFF" filter="url(#fjk7v7ire3exl)" height="175.7949" style="stroke:#A80036;stroke-width:1.0;" width="10" x="249.5" y="1226.7324"/><rect fill="#FFFFFF" filter="url(#fjk7v7ire3exl)" height="186.1738" style="stroke:#A80036;stroke-width:1.0;" width="10" x="344.5" y="205.1738"/><rect fill="#FFFFFF" filter="url(#fjk7v7ire3exl)" height="495.2793" style="stroke:#A80036;stroke-width:1.0;" width="10" x="344.5" y="428.6582"/><rect fill="#FFFFFF" filter="url(#fjk7v7ire3exl)" height="244.1738" style="stroke:#A80036;stroke-width:1.0;" width="10" x="344.5" y="953.248"/><rect fill="#FFFFFF" filter="url(#fjk7v7ire3exl)" height="114.5527" style="stroke:#A80036;stroke-width:1.0;" width="10" x="508.5" y="276.7949"/><rect fill="#FFFFFF" filter="url(#fjk7v7ire3exl)" height="72.0869" style="stroke:#A80036;stroke-width:1.0;" width="10" x="508.5" y="462.9688"/><rect fill="#FFFFFF" filter="url(#fjk7v7ire3exl)" height="315.7949" style="stroke:#A80036;stroke-width:1.0;" width="10" x="663.5" y="608.1426"/><rect fill="#FFFFFF" filter="url(#fjk7v7ire3exl)" height="214.8633" style="stroke:#A80036;stroke-width:1.0;" width="10" x="763.5" y="679.7637"/><rect fill="#FFFFFF" filter="url(#fjk7v7ire3exl)" height="214.8633" style="stroke:#A80036;stroke-width:1.0;" width="10" x="763.5" y="953.248"/><rect fill="#FFFFFF" filter="url(#fjk7v7ire3exl)" height="214.8633" style="stroke:#A80036;stroke-width:1.0;" width="10" x="763.5" y="1431.8379"/><rect fill="#FFFFFF" filter="url(#fjk7v7ire3exl)" height="214.8633" style="stroke:#A80036;stroke-width:1.0;" width="10" x="763.5" y="1705.3223"/><rect fill="#FFFFFF" filter="url(#fjk7v7ire3exl)" height="113.9316" style="stroke:#A80036;stroke-width:1.0;" width="10" x="863.5" y="751.3848"/><rect fill="#FFFFFF" filter="url(#fjk7v7ire3exl)" height="113.9316" style="stroke:#A80036;stroke-width:1.0;" width="10" x="863.5" y="1024.8691"/><rect fill="#FFFFFF" filter="url(#fjk7v7ire3exl)" height="113.9316" style="stroke:#A80036;stroke-width:1.0;" width="10" x="863.5" y="1503.459"/><rect fill="#FFFFFF" filter="url(#fjk7v7ire3exl)" height="113.9316" style="stroke:#A80036;stroke-width:1.0;" width="10" x="863.5" y="1776.9434"/><polygon fill="#A80036" points="111.5,129.5527,121.5,133.5527,111.5,137.5527,115.5,133.5527" style="stroke:#A80036;stroke-width:1.0;"/><line style="stroke:#A80036;stroke-width:1.0;" x1="42.5" x2="117.5" y1="133.5527" y2="133.5527"/><text fill="#000000" font-family="sans-serif" font-size="13" font-weight="bold" lengthAdjust="spacing" textLength="21" x="49.5" y="128.8105">1.1</text><text fill="#000000" font-family="sans-serif" font-size="13" lengthAdjust="spacing" textLength="37" x="74.5" y="128.8105">start()</text><line style="stroke:#A80036;stroke-width:1.0;" x1="133.5" x2="175.5" y1="162.8633" y2="162.8633"/><line style="stroke:#A80036;stroke-width:1.0;" x1="175.5" x2="175.5" y1="162.8633" y2="175.8633"/><line style="stroke:#A80036;stroke-width:1.0;" x1="134.5" x2="175.5" y1="175.8633" y2="175.8633"/><polygon fill="#A80036" points="144.5,171.8633,134.5,175.8633,144.5,179.8633,140.5,175.8633" style="stroke:#A80036;stroke-width:1.0;"/><text fill="#000000" font-family="sans-serif" font-size="13" font-weight="bold" lengthAdjust="spacing" textLength="21" x="140.5" y="158.1211">1.2</text><text fill="#000000" font-family="sans-serif" font-size="13" lengthAdjust="spacing" textLength="29" x="165.5" y="158.1211">init()</text><polygon fill="#A80036" points="332.5,201.1738,342.5,205.1738,332.5,209.1738,336.5,205.1738" style="stroke:#A80036;stroke-width:1.0;"/><line style="stroke:#A80036;stroke-width:1.0;" x1="133.5" x2="338.5" y1="205.1738" y2="205.1738"/><text fill="#000000" font-family="sans-serif" font-size="13" font-weight="bold" lengthAdjust="spacing" textLength="21" x="140.5" y="200.4316">1.3</text><text fill="#000000" font-family="sans-serif" font-size="13" lengthAdjust="spacing" textLength="37" x="165.5" y="200.4316">start()</text><line style="stroke:#A80036;stroke-width:1.0;" x1="354.5" x2="396.5" y1="234.4844" y2="234.4844"/><line style="stroke:#A80036;stroke-width:1.0;" x1="396.5" x2="396.5" y1="234.4844" y2="247.4844"/><line style="stroke:#A80036;stroke-width:1.0;" x1="355.5" x2="396.5" y1="247.4844" y2="247.4844"/><polygon fill="#A80036" points="365.5,243.4844,355.5,247.4844,365.5,251.4844,361.5,247.4844" style="stroke:#A80036;stroke-width:1.0;"/><text fill="#000000" font-family="sans-serif" font-size="13" font-weight="bold" lengthAdjust="spacing" textLength="21" x="361.5" y="229.7422">1.4</text><text fill="#000000" font-family="sans-serif" font-size="13" lengthAdjust="spacing" textLength="29" x="386.5" y="229.7422">init()</text><polygon fill="#A80036" points="496.5,272.7949,506.5,276.7949,496.5,280.7949,500.5,276.7949" style="stroke:#A80036;stroke-width:1.0;"/><line style="stroke:#A80036;stroke-width:1.0;" x1="354.5" x2="502.5" y1="276.7949" y2="276.7949"/><text fill="#000000" font-family="sans-serif" font-size="13" font-weight="bold" lengthAdjust="spacing" textLength="21" x="361.5" y="272.0527">1.5</text><text fill="#000000" font-family="sans-serif" font-size="13" lengthAdjust="spacing" textLength="75" x="386.5" y="272.0527">INITIALIZED</text><line style="stroke:#A80036;stroke-width:1.0;" x1="518.5" x2="560.5" y1="327.5713" y2="327.5713"/><line style="stroke:#A80036;stroke-width:1.0;" x1="560.5" x2="560.5" y1="327.5713" y2="340.5713"/><line style="stroke:#A80036;stroke-width:1.0;" x1="519.5" x2="560.5" y1="340.5713" y2="340.5713"/><polygon fill="#A80036" points="529.5,336.5713,519.5,340.5713,529.5,344.5713,525.5,340.5713" style="stroke:#A80036;stroke-width:1.0;"/><text fill="#000000" font-family="sans-serif" font-size="13" font-weight="bold" lengthAdjust="spacing" textLength="21" x="525.5" y="322.8291">1.6</text><text fill="#000000" font-family="sans-serif" font-size="13" lengthAdjust="spacing" textLength="29" x="550.5" y="322.8291">init()</text><path d="M591,289.7949 L591,360.7949 L910,360.7949 L910,299.7949 L900,289.7949 L591,289.7949 " fill="#FBFB77" filter="url(#fjk7v7ire3exl)" style="stroke:#A80036;stroke-width:1.0;"/><path d="M900,289.7949 L900,299.7949 L910,299.7949 L900,289.7949 " fill="#FBFB77" style="stroke:#A80036;stroke-width:1.0;"/><text fill="#000000" font-family="sans-serif" font-size="13" lengthAdjust="spacing" textLength="227" x="597" y="307.3633">When Context's state is INITIALIZED</text><text fill="#000000" font-family="sans-serif" font-size="13" lengthAdjust="spacing" textLength="298" x="597" y="322.6738">the LifecycleListener &lt;ContextConfig&gt; execute</text><text fill="#000000" font-family="sans-serif" font-size="13" lengthAdjust="spacing" textLength="153" x="597" y="337.9844">contextConfig() to parse</text><text fill="#000000" font-family="sans-serif" font-size="13" lengthAdjust="spacing" textLength="289" x="597" y="353.2949">conf/context.xml and META-INF/context.xml</text><polygon fill="#A80036" points="360.5,387.3477,350.5,391.3477,360.5,395.3477,356.5,391.3477" style="stroke:#A80036;stroke-width:1.0;"/><line style="stroke:#A80036;stroke-width:1.0;" x1="354.5" x2="512.5" y1="391.3477" y2="391.3477"/><text fill="#000000" font-family="sans-serif" font-size="13" font-weight="bold" lengthAdjust="spacing" textLength="21" x="366.5" y="386.6055">1.7</text><text fill="#000000" font-family="sans-serif" font-size="13" lengthAdjust="spacing" textLength="0" x="395.5" y="386.6055"/><line style="stroke:#A80036;stroke-width:1.0;" x1="349.5" x2="396.5" y1="415.6582" y2="415.6582"/><line style="stroke:#A80036;stroke-width:1.0;" x1="396.5" x2="396.5" y1="415.6582" y2="428.6582"/><line style="stroke:#A80036;stroke-width:1.0;" x1="355.5" x2="396.5" y1="428.6582" y2="428.6582"/><polygon fill="#A80036" points="365.5,424.6582,355.5,428.6582,365.5,432.6582,361.5,428.6582" style="stroke:#A80036;stroke-width:1.0;"/><text fill="#000000" font-family="sans-serif" font-size="13" font-weight="bold" lengthAdjust="spacing" textLength="21" x="361.5" y="410.916">1.8</text><text fill="#000000" font-family="sans-serif" font-size="13" lengthAdjust="spacing" textLength="37" x="386.5" y="410.916">start()</text><polygon fill="#A80036" points="496.5,458.9688,506.5,462.9688,496.5,466.9688,500.5,462.9688" style="stroke:#A80036;stroke-width:1.0;"/><line style="stroke:#A80036;stroke-width:1.0;" x1="354.5" x2="502.5" y1="462.9688" y2="462.9688"/><text fill="#000000" font-family="sans-serif" font-size="13" font-weight="bold" lengthAdjust="spacing" textLength="21" x="361.5" y="458.2266">1.9</text><text fill="#000000" font-family="sans-serif" font-size="13" lengthAdjust="spacing" textLength="110" x="386.5" y="458.2266">fireLifecycleEvent</text><line style="stroke:#A80036;stroke-width:1.0;" x1="518.5" x2="560.5" y1="534.0557" y2="534.0557"/><line style="stroke:#A80036;stroke-width:1.0;" x1="560.5" x2="560.5" y1="534.0557" y2="547.0557"/><line style="stroke:#A80036;stroke-width:1.0;" x1="513.5" x2="560.5" y1="547.0557" y2="547.0557"/><polygon fill="#A80036" points="523.5,543.0557,513.5,547.0557,523.5,551.0557,519.5,547.0557" style="stroke:#A80036;stroke-width:1.0;"/><text fill="#000000" font-family="sans-serif" font-size="13" font-weight="bold" lengthAdjust="spacing" textLength="30" x="525.5" y="529.3135">1.10</text><text fill="#000000" font-family="sans-serif" font-size="13" lengthAdjust="spacing" textLength="97" x="559.5" y="529.3135">configureStart()</text><path d="M668,475.9688 L668,576.9688 L935,576.9688 L935,485.9688 L925,475.9688 L668,475.9688 " fill="#FBFB77" filter="url(#fjk7v7ire3exl)" style="stroke:#A80036;stroke-width:1.0;"/><path d="M925,475.9688 L925,485.9688 L935,485.9688 L925,475.9688 " fill="#FBFB77" style="stroke:#A80036;stroke-width:1.0;"/><text fill="#000000" font-family="sans-serif" font-size="13" lengthAdjust="spacing" textLength="246" x="674" y="493.5371">Context fire CONFIGURE_START_EVENT</text><text fill="#000000" font-family="sans-serif" font-size="13" lengthAdjust="spacing" textLength="245" x="674" y="508.8477">the LifecycleListener &lt;ContextConfig&gt;</text><text fill="#000000" font-family="sans-serif" font-size="13" lengthAdjust="spacing" textLength="205" x="674" y="524.1582">execute configureStart() to parse</text><text fill="#000000" font-family="sans-serif" font-size="13" lengthAdjust="spacing" textLength="233" x="674" y="539.4688">conf/web.xml and WEB-INF/web.xml</text><text fill="#000000" font-family="sans-serif" font-size="13" lengthAdjust="spacing" textLength="201" x="674" y="554.7793">for servlets filters and listeners.</text><text fill="#000000" font-family="sans-serif" font-size="13" lengthAdjust="spacing" textLength="184" x="674" y="570.0898">Put all Wrappers into Context</text><polygon fill="#A80036" points="651.5,604.1426,661.5,608.1426,651.5,612.1426,655.5,608.1426" style="stroke:#A80036;stroke-width:1.0;"/><line style="stroke:#A80036;stroke-width:1.0;" x1="354.5" x2="657.5" y1="608.1426" y2="608.1426"/><text fill="#000000" font-family="sans-serif" font-size="13" font-weight="bold" lengthAdjust="spacing" textLength="30" x="361.5" y="603.4004">1.11</text><text fill="#000000" font-family="sans-serif" font-size="13" lengthAdjust="spacing" textLength="37" x="395.5" y="603.4004">start()</text><line style="stroke:#A80036;stroke-width:1.0;" x1="673.5" x2="715.5" y1="637.4531" y2="637.4531"/><line style="stroke:#A80036;stroke-width:1.0;" x1="715.5" x2="715.5" y1="637.4531" y2="650.4531"/><line style="stroke:#A80036;stroke-width:1.0;" x1="674.5" x2="715.5" y1="650.4531" y2="650.4531"/><polygon fill="#A80036" points="684.5,646.4531,674.5,650.4531,684.5,654.4531,680.5,650.4531" style="stroke:#A80036;stroke-width:1.0;"/><text fill="#000000" font-family="sans-serif" font-size="13" font-weight="bold" lengthAdjust="spacing" textLength="30" x="680.5" y="632.7109">1.12</text><text fill="#000000" font-family="sans-serif" font-size="13" lengthAdjust="spacing" textLength="29" x="714.5" y="632.7109">init()</text><polygon fill="#A80036" points="751.5,675.7637,761.5,679.7637,751.5,683.7637,755.5,679.7637" style="stroke:#A80036;stroke-width:1.0;"/><line style="stroke:#A80036;stroke-width:1.0;" x1="673.5" x2="757.5" y1="679.7637" y2="679.7637"/><text fill="#000000" font-family="sans-serif" font-size="13" font-weight="bold" lengthAdjust="spacing" textLength="30" x="680.5" y="675.0215">1.13</text><text fill="#000000" font-family="sans-serif" font-size="13" lengthAdjust="spacing" textLength="37" x="714.5" y="675.0215">start()</text><line style="stroke:#A80036;stroke-width:1.0;" x1="773.5" x2="815.5" y1="709.0742" y2="709.0742"/><line style="stroke:#A80036;stroke-width:1.0;" x1="815.5" x2="815.5" y1="709.0742" y2="722.0742"/><line style="stroke:#A80036;stroke-width:1.0;" x1="774.5" x2="815.5" y1="722.0742" y2="722.0742"/><polygon fill="#A80036" points="784.5,718.0742,774.5,722.0742,784.5,726.0742,780.5,722.0742" style="stroke:#A80036;stroke-width:1.0;"/><text fill="#000000" font-family="sans-serif" font-size="13" font-weight="bold" lengthAdjust="spacing" textLength="30" x="780.5" y="704.332">1.14</text><text fill="#000000" font-family="sans-serif" font-size="13" lengthAdjust="spacing" textLength="29" x="814.5" y="704.332">init()</text><polygon fill="#A80036" points="851.5,747.3848,861.5,751.3848,851.5,755.3848,855.5,751.3848" style="stroke:#A80036;stroke-width:1.0;"/><line style="stroke:#A80036;stroke-width:1.0;" x1="773.5" x2="857.5" y1="751.3848" y2="751.3848"/><text fill="#000000" font-family="sans-serif" font-size="13" font-weight="bold" lengthAdjust="spacing" textLength="30" x="780.5" y="746.6426">1.15</text><text fill="#000000" font-family="sans-serif" font-size="13" lengthAdjust="spacing" textLength="37" x="814.5" y="746.6426">start()</text><line style="stroke:#A80036;stroke-width:1.0;" x1="873.5" x2="915.5" y1="780.6953" y2="780.6953"/><line style="stroke:#A80036;stroke-width:1.0;" x1="915.5" x2="915.5" y1="780.6953" y2="793.6953"/><line style="stroke:#A80036;stroke-width:1.0;" x1="874.5" x2="915.5" y1="793.6953" y2="793.6953"/><polygon fill="#A80036" points="884.5,789.6953,874.5,793.6953,884.5,797.6953,880.5,793.6953" style="stroke:#A80036;stroke-width:1.0;"/><text fill="#000000" font-family="sans-serif" font-size="13" font-weight="bold" lengthAdjust="spacing" textLength="30" x="880.5" y="775.9531">1.16</text><text fill="#000000" font-family="sans-serif" font-size="13" lengthAdjust="spacing" textLength="29" x="914.5" y="775.9531">init()</text><line style="stroke:#A80036;stroke-width:1.0;" x1="873.5" x2="915.5" y1="823.0059" y2="823.0059"/><line style="stroke:#A80036;stroke-width:1.0;" x1="915.5" x2="915.5" y1="823.0059" y2="836.0059"/><line style="stroke:#A80036;stroke-width:1.0;" x1="874.5" x2="915.5" y1="836.0059" y2="836.0059"/><polygon fill="#A80036" points="884.5,832.0059,874.5,836.0059,884.5,840.0059,880.5,836.0059" style="stroke:#A80036;stroke-width:1.0;"/><text fill="#000000" font-family="sans-serif" font-size="13" font-weight="bold" lengthAdjust="spacing" textLength="30" x="880.5" y="818.2637">1.17</text><text fill="#000000" font-family="sans-serif" font-size="13" lengthAdjust="spacing" textLength="37" x="914.5" y="818.2637">start()</text><polygon fill="#A80036" points="784.5,861.3164,774.5,865.3164,784.5,869.3164,780.5,865.3164" style="stroke:#A80036;stroke-width:1.0;"/><line style="stroke:#A80036;stroke-width:1.0;" x1="778.5" x2="867.5" y1="865.3164" y2="865.3164"/><text fill="#000000" font-family="sans-serif" font-size="13" font-weight="bold" lengthAdjust="spacing" textLength="30" x="790.5" y="860.5742">1.18</text><text fill="#000000" font-family="sans-serif" font-size="13" lengthAdjust="spacing" textLength="0" x="828.5" y="860.5742"/><polygon fill="#A80036" points="684.5,890.627,674.5,894.627,684.5,898.627,680.5,894.627" style="stroke:#A80036;stroke-width:1.0;"/><line style="stroke:#A80036;stroke-width:1.0;" x1="678.5" x2="767.5" y1="894.627" y2="894.627"/><text fill="#000000" font-family="sans-serif" font-size="13" font-weight="bold" lengthAdjust="spacing" textLength="30" x="690.5" y="889.8848">1.19</text><text fill="#000000" font-family="sans-serif" font-size="13" lengthAdjust="spacing" textLength="0" x="728.5" y="889.8848"/><polygon fill="#A80036" points="360.5,919.9375,350.5,923.9375,360.5,927.9375,356.5,923.9375" style="stroke:#A80036;stroke-width:1.0;"/><line style="stroke:#A80036;stroke-width:1.0;" x1="354.5" x2="667.5" y1="923.9375" y2="923.9375"/><text fill="#000000" font-family="sans-serif" font-size="13" font-weight="bold" lengthAdjust="spacing" textLength="30" x="366.5" y="919.1953">1.20</text><text fill="#000000" font-family="sans-serif" font-size="13" lengthAdjust="spacing" textLength="0" x="404.5" y="919.1953"/><polygon fill="#A80036" points="751.5,949.248,761.5,953.248,751.5,957.248,755.5,953.248" style="stroke:#A80036;stroke-width:1.0;"/><line style="stroke:#A80036;stroke-width:1.0;" x1="354.5" x2="757.5" y1="953.248" y2="953.248"/><text fill="#000000" font-family="sans-serif" font-size="13" font-weight="bold" lengthAdjust="spacing" textLength="30" x="361.5" y="948.5059">1.21</text><text fill="#000000" font-family="sans-serif" font-size="13" lengthAdjust="spacing" textLength="37" x="395.5" y="948.5059">start()</text><line style="stroke:#A80036;stroke-width:1.0;" x1="773.5" x2="815.5" y1="982.5586" y2="982.5586"/><line style="stroke:#A80036;stroke-width:1.0;" x1="815.5" x2="815.5" y1="982.5586" y2="995.5586"/><line style="stroke:#A80036;stroke-width:1.0;" x1="774.5" x2="815.5" y1="995.5586" y2="995.5586"/><polygon fill="#A80036" points="784.5,991.5586,774.5,995.5586,784.5,999.5586,780.5,995.5586" style="stroke:#A80036;stroke-width:1.0;"/><text fill="#000000" font-family="sans-serif" font-size="13" font-weight="bold" lengthAdjust="spacing" textLength="30" x="780.5" y="977.8164">1.22</text><text fill="#000000" font-family="sans-serif" font-size="13" lengthAdjust="spacing" textLength="29" x="814.5" y="977.8164">init()</text><polygon fill="#A80036" points="851.5,1020.8691,861.5,1024.8691,851.5,1028.8691,855.5,1024.8691" style="stroke:#A80036;stroke-width:1.0;"/><line style="stroke:#A80036;stroke-width:1.0;" x1="773.5" x2="857.5" y1="1024.8691" y2="1024.8691"/><text fill="#000000" font-family="sans-serif" font-size="13" font-weight="bold" lengthAdjust="spacing" textLength="30" x="780.5" y="1020.127">1.23</text><text fill="#000000" font-family="sans-serif" font-size="13" lengthAdjust="spacing" textLength="37" x="814.5" y="1020.127">start()</text><line style="stroke:#A80036;stroke-width:1.0;" x1="873.5" x2="915.5" y1="1054.1797" y2="1054.1797"/><line style="stroke:#A80036;stroke-width:1.0;" x1="915.5" x2="915.5" y1="1054.1797" y2="1067.1797"/><line style="stroke:#A80036;stroke-width:1.0;" x1="874.5" x2="915.5" y1="1067.1797" y2="1067.1797"/><polygon fill="#A80036" points="884.5,1063.1797,874.5,1067.1797,884.5,1071.1797,880.5,1067.1797" style="stroke:#A80036;stroke-width:1.0;"/><text fill="#000000" font-family="sans-serif" font-size="13" font-weight="bold" lengthAdjust="spacing" textLength="30" x="880.5" y="1049.4375">1.24</text><text fill="#000000" font-family="sans-serif" font-size="13" lengthAdjust="spacing" textLength="29" x="914.5" y="1049.4375">init()</text><line style="stroke:#A80036;stroke-width:1.0;" x1="873.5" x2="915.5" y1="1096.4902" y2="1096.4902"/><line style="stroke:#A80036;stroke-width:1.0;" x1="915.5" x2="915.5" y1="1096.4902" y2="1109.4902"/><line style="stroke:#A80036;stroke-width:1.0;" x1="874.5" x2="915.5" y1="1109.4902" y2="1109.4902"/><polygon fill="#A80036" points="884.5,1105.4902,874.5,1109.4902,884.5,1113.4902,880.5,1109.4902" style="stroke:#A80036;stroke-width:1.0;"/><text fill="#000000" font-family="sans-serif" font-size="13" font-weight="bold" lengthAdjust="spacing" textLength="30" x="880.5" y="1091.748">1.25</text><text fill="#000000" font-family="sans-serif" font-size="13" lengthAdjust="spacing" textLength="37" x="914.5" y="1091.748">start()</text><polygon fill="#A80036" points="784.5,1134.8008,774.5,1138.8008,784.5,1142.8008,780.5,1138.8008" style="stroke:#A80036;stroke-width:1.0;"/><line style="stroke:#A80036;stroke-width:1.0;" x1="778.5" x2="867.5" y1="1138.8008" y2="1138.8008"/><text fill="#000000" font-family="sans-serif" font-size="13" font-weight="bold" lengthAdjust="spacing" textLength="30" x="790.5" y="1134.0586">1.26</text><text fill="#000000" font-family="sans-serif" font-size="13" lengthAdjust="spacing" textLength="0" x="828.5" y="1134.0586"/><polygon fill="#A80036" points="365.5,1164.1113,355.5,1168.1113,365.5,1172.1113,361.5,1168.1113" style="stroke:#A80036;stroke-width:1.0;"/><line style="stroke:#A80036;stroke-width:1.0;" x1="359.5" x2="767.5" y1="1168.1113" y2="1168.1113"/><text fill="#000000" font-family="sans-serif" font-size="13" font-weight="bold" lengthAdjust="spacing" textLength="30" x="371.5" y="1163.3691">1.27</text><text fill="#000000" font-family="sans-serif" font-size="13" lengthAdjust="spacing" textLength="0" x="409.5" y="1163.3691"/><polygon fill="#A80036" points="144.5,1193.4219,134.5,1197.4219,144.5,1201.4219,140.5,1197.4219" style="stroke:#A80036;stroke-width:1.0;"/><line style="stroke:#A80036;stroke-width:1.0;" x1="138.5" x2="348.5" y1="1197.4219" y2="1197.4219"/><text fill="#000000" font-family="sans-serif" font-size="13" font-weight="bold" lengthAdjust="spacing" textLength="30" x="150.5" y="1192.6797">1.28</text><text fill="#000000" font-family="sans-serif" font-size="13" lengthAdjust="spacing" textLength="0" x="188.5" y="1192.6797"/><polygon fill="#A80036" points="237.5,1222.7324,247.5,1226.7324,237.5,1230.7324,241.5,1226.7324" style="stroke:#A80036;stroke-width:1.0;"/><line style="stroke:#A80036;stroke-width:1.0;" x1="133.5" x2="243.5" y1="1226.7324" y2="1226.7324"/><text fill="#000000" font-family="sans-serif" font-size="13" font-weight="bold" lengthAdjust="spacing" textLength="30" x="140.5" y="1221.9902">1.29</text><text fill="#000000" font-family="sans-serif" font-size="13" lengthAdjust="spacing" textLength="63" x="174.5" y="1221.9902">STARTING</text><line style="stroke:#A80036;stroke-width:1.0;" x1="259.5" x2="301.5" y1="1308.1299" y2="1308.1299"/><line style="stroke:#A80036;stroke-width:1.0;" x1="301.5" x2="301.5" y1="1308.1299" y2="1321.1299"/><line style="stroke:#A80036;stroke-width:1.0;" x1="260.5" x2="301.5" y1="1321.1299" y2="1321.1299"/><polygon fill="#A80036" points="270.5,1317.1299,260.5,1321.1299,270.5,1325.1299,266.5,1321.1299" style="stroke:#A80036;stroke-width:1.0;"/><text fill="#000000" font-family="sans-serif" font-size="13" font-weight="bold" lengthAdjust="spacing" textLength="30" x="266.5" y="1303.3877">1.30</text><text fill="#000000" font-family="sans-serif" font-size="13" lengthAdjust="spacing" textLength="37" x="300.5" y="1303.3877">start()</text><path d="M349,1239.7324 L349,1371.7324 L713,1371.7324 L713,1249.7324 L703,1239.7324 L349,1239.7324 " fill="#FBFB77" filter="url(#fjk7v7ire3exl)" style="stroke:#A80036;stroke-width:1.0;"/><path d="M703,1239.7324 L703,1249.7324 L713,1249.7324 L703,1239.7324 " fill="#FBFB77" style="stroke:#A80036;stroke-width:1.0;"/><text fill="#000000" font-family="sans-serif" font-size="13" lengthAdjust="spacing" textLength="195" x="355" y="1257.3008">When Host's state is STARTING</text><text fill="#000000" font-family="sans-serif" font-size="13" lengthAdjust="spacing" textLength="319" x="355" y="1272.6113">the LifecycleListener &lt;HostConfig&gt; execute start()</text><text fill="#000000" font-family="sans-serif" font-size="13" lengthAdjust="spacing" textLength="343" x="355" y="1287.9219">to deploy applications for any directories or WAR files.</text><text fill="#000000" font-family="sans-serif" font-size="13" lengthAdjust="spacing" textLength="261" x="355" y="1303.2324">Put all Contexts of applications into Host</text><text fill="#000000" font-family="sans-serif" font-size="13" lengthAdjust="spacing" textLength="0" x="359" y="1318.543"/><text fill="#000000" font-family="sans-serif" font-size="13" lengthAdjust="spacing" textLength="34" x="355" y="1333.8535">Note:</text><text fill="#000000" font-family="sans-serif" font-size="13" lengthAdjust="spacing" textLength="326" x="371" y="1349.1641">Host's method addChild(context) will make Context</text><text fill="#000000" font-family="sans-serif" font-size="13" lengthAdjust="spacing" textLength="235" x="371" y="1364.4746">to execute its lifecycle method start()</text><polygon fill="#A80036" points="139.5,1398.5273,129.5,1402.5273,139.5,1406.5273,135.5,1402.5273" style="stroke:#A80036;stroke-width:1.0;"/><line style="stroke:#A80036;stroke-width:1.0;" x1="133.5" x2="253.5" y1="1402.5273" y2="1402.5273"/><text fill="#000000" font-family="sans-serif" font-size="13" font-weight="bold" lengthAdjust="spacing" textLength="30" x="145.5" y="1397.7852">1.31</text><text fill="#000000" font-family="sans-serif" font-size="13" lengthAdjust="spacing" textLength="0" x="183.5" y="1397.7852"/><polygon fill="#A80036" points="751.5,1427.8379,761.5,1431.8379,751.5,1435.8379,755.5,1431.8379" style="stroke:#A80036;stroke-width:1.0;"/><line style="stroke:#A80036;stroke-width:1.0;" x1="133.5" x2="757.5" y1="1431.8379" y2="1431.8379"/><text fill="#000000" font-family="sans-serif" font-size="13" font-weight="bold" lengthAdjust="spacing" textLength="30" x="140.5" y="1427.0957">1.32</text><text fill="#000000" font-family="sans-serif" font-size="13" lengthAdjust="spacing" textLength="37" x="174.5" y="1427.0957">start()</text><line style="stroke:#A80036;stroke-width:1.0;" x1="773.5" x2="815.5" y1="1461.1484" y2="1461.1484"/><line style="stroke:#A80036;stroke-width:1.0;" x1="815.5" x2="815.5" y1="1461.1484" y2="1474.1484"/><line style="stroke:#A80036;stroke-width:1.0;" x1="774.5" x2="815.5" y1="1474.1484" y2="1474.1484"/><polygon fill="#A80036" points="784.5,1470.1484,774.5,1474.1484,784.5,1478.1484,780.5,1474.1484" style="stroke:#A80036;stroke-width:1.0;"/><text fill="#000000" font-family="sans-serif" font-size="13" font-weight="bold" lengthAdjust="spacing" textLength="30" x="780.5" y="1456.4063">1.33</text><text fill="#000000" font-family="sans-serif" font-size="13" lengthAdjust="spacing" textLength="29" x="814.5" y="1456.4063">init()</text><polygon fill="#A80036" points="851.5,1499.459,861.5,1503.459,851.5,1507.459,855.5,1503.459" style="stroke:#A80036;stroke-width:1.0;"/><line style="stroke:#A80036;stroke-width:1.0;" x1="773.5" x2="857.5" y1="1503.459" y2="1503.459"/><text fill="#000000" font-family="sans-serif" font-size="13" font-weight="bold" lengthAdjust="spacing" textLength="30" x="780.5" y="1498.7168">1.34</text><text fill="#000000" font-family="sans-serif" font-size="13" lengthAdjust="spacing" textLength="37" x="814.5" y="1498.7168">start()</text><line style="stroke:#A80036;stroke-width:1.0;" x1="873.5" x2="915.5" y1="1532.7695" y2="1532.7695"/><line style="stroke:#A80036;stroke-width:1.0;" x1="915.5" x2="915.5" y1="1532.7695" y2="1545.7695"/><line style="stroke:#A80036;stroke-width:1.0;" x1="874.5" x2="915.5" y1="1545.7695" y2="1545.7695"/><polygon fill="#A80036" points="884.5,1541.7695,874.5,1545.7695,884.5,1549.7695,880.5,1545.7695" style="stroke:#A80036;stroke-width:1.0;"/><text fill="#000000" font-family="sans-serif" font-size="13" font-weight="bold" lengthAdjust="spacing" textLength="30" x="880.5" y="1528.0273">1.35</text><text fill="#000000" font-family="sans-serif" font-size="13" lengthAdjust="spacing" textLength="29" x="914.5" y="1528.0273">init()</text><line style="stroke:#A80036;stroke-width:1.0;" x1="873.5" x2="915.5" y1="1575.0801" y2="1575.0801"/><line style="stroke:#A80036;stroke-width:1.0;" x1="915.5" x2="915.5" y1="1575.0801" y2="1588.0801"/><line style="stroke:#A80036;stroke-width:1.0;" x1="874.5" x2="915.5" y1="1588.0801" y2="1588.0801"/><polygon fill="#A80036" points="884.5,1584.0801,874.5,1588.0801,884.5,1592.0801,880.5,1588.0801" style="stroke:#A80036;stroke-width:1.0;"/><text fill="#000000" font-family="sans-serif" font-size="13" font-weight="bold" lengthAdjust="spacing" textLength="30" x="880.5" y="1570.3379">1.36</text><text fill="#000000" font-family="sans-serif" font-size="13" lengthAdjust="spacing" textLength="37" x="914.5" y="1570.3379">start()</text><polygon fill="#A80036" points="784.5,1613.3906,774.5,1617.3906,784.5,1621.3906,780.5,1617.3906" style="stroke:#A80036;stroke-width:1.0;"/><line style="stroke:#A80036;stroke-width:1.0;" x1="778.5" x2="867.5" y1="1617.3906" y2="1617.3906"/><text fill="#000000" font-family="sans-serif" font-size="13" font-weight="bold" lengthAdjust="spacing" textLength="30" x="790.5" y="1612.6484">1.37</text><text fill="#000000" font-family="sans-serif" font-size="13" lengthAdjust="spacing" textLength="0" x="828.5" y="1612.6484"/><polygon fill="#A80036" points="144.5,1642.7012,134.5,1646.7012,144.5,1650.7012,140.5,1646.7012" style="stroke:#A80036;stroke-width:1.0;"/><line style="stroke:#A80036;stroke-width:1.0;" x1="138.5" x2="767.5" y1="1646.7012" y2="1646.7012"/><text fill="#000000" font-family="sans-serif" font-size="13" font-weight="bold" lengthAdjust="spacing" textLength="30" x="150.5" y="1641.959">1.38</text><text fill="#000000" font-family="sans-serif" font-size="13" lengthAdjust="spacing" textLength="0" x="188.5" y="1641.959"/><polygon fill="#A80036" points="48.5,1672.0117,38.5,1676.0117,48.5,1680.0117,44.5,1676.0117" style="stroke:#A80036;stroke-width:1.0;"/><line style="stroke:#A80036;stroke-width:1.0;" x1="42.5" x2="127.5" y1="1676.0117" y2="1676.0117"/><text fill="#000000" font-family="sans-serif" font-size="13" font-weight="bold" lengthAdjust="spacing" textLength="30" x="54.5" y="1671.2695">1.39</text><text fill="#000000" font-family="sans-serif" font-size="13" lengthAdjust="spacing" textLength="0" x="92.5" y="1671.2695"/><polygon fill="#A80036" points="751.5,1701.3223,761.5,1705.3223,751.5,1709.3223,755.5,1705.3223" style="stroke:#A80036;stroke-width:1.0;"/><line style="stroke:#A80036;stroke-width:1.0;" x1="42.5" x2="757.5" y1="1705.3223" y2="1705.3223"/><text fill="#000000" font-family="sans-serif" font-size="13" font-weight="bold" lengthAdjust="spacing" textLength="30" x="49.5" y="1700.5801">1.40</text><text fill="#000000" font-family="sans-serif" font-size="13" lengthAdjust="spacing" textLength="37" x="83.5" y="1700.5801">start()</text><line style="stroke:#A80036;stroke-width:1.0;" x1="773.5" x2="815.5" y1="1734.6328" y2="1734.6328"/><line style="stroke:#A80036;stroke-width:1.0;" x1="815.5" x2="815.5" y1="1734.6328" y2="1747.6328"/><line style="stroke:#A80036;stroke-width:1.0;" x1="774.5" x2="815.5" y1="1747.6328" y2="1747.6328"/><polygon fill="#A80036" points="784.5,1743.6328,774.5,1747.6328,784.5,1751.6328,780.5,1747.6328" style="stroke:#A80036;stroke-width:1.0;"/><text fill="#000000" font-family="sans-serif" font-size="13" font-weight="bold" lengthAdjust="spacing" textLength="30" x="780.5" y="1729.8906">1.41</text><text fill="#000000" font-family="sans-serif" font-size="13" lengthAdjust="spacing" textLength="29" x="814.5" y="1729.8906">init()</text><polygon fill="#A80036" points="851.5,1772.9434,861.5,1776.9434,851.5,1780.9434,855.5,1776.9434" style="stroke:#A80036;stroke-width:1.0;"/><line style="stroke:#A80036;stroke-width:1.0;" x1="773.5" x2="857.5" y1="1776.9434" y2="1776.9434"/><text fill="#000000" font-family="sans-serif" font-size="13" font-weight="bold" lengthAdjust="spacing" textLength="30" x="780.5" y="1772.2012">1.42</text><text fill="#000000" font-family="sans-serif" font-size="13" lengthAdjust="spacing" textLength="37" x="814.5" y="1772.2012">start()</text><line style="stroke:#A80036;stroke-width:1.0;" x1="873.5" x2="915.5" y1="1806.2539" y2="1806.2539"/><line style="stroke:#A80036;stroke-width:1.0;" x1="915.5" x2="915.5" y1="1806.2539" y2="1819.2539"/><line style="stroke:#A80036;stroke-width:1.0;" x1="874.5" x2="915.5" y1="1819.2539" y2="1819.2539"/><polygon fill="#A80036" points="884.5,1815.2539,874.5,1819.2539,884.5,1823.2539,880.5,1819.2539" style="stroke:#A80036;stroke-width:1.0;"/><text fill="#000000" font-family="sans-serif" font-size="13" font-weight="bold" lengthAdjust="spacing" textLength="30" x="880.5" y="1801.5117">1.43</text><text fill="#000000" font-family="sans-serif" font-size="13" lengthAdjust="spacing" textLength="29" x="914.5" y="1801.5117">init()</text><line style="stroke:#A80036;stroke-width:1.0;" x1="873.5" x2="915.5" y1="1848.5645" y2="1848.5645"/><line style="stroke:#A80036;stroke-width:1.0;" x1="915.5" x2="915.5" y1="1848.5645" y2="1861.5645"/><line style="stroke:#A80036;stroke-width:1.0;" x1="874.5" x2="915.5" y1="1861.5645" y2="1861.5645"/><polygon fill="#A80036" points="884.5,1857.5645,874.5,1861.5645,884.5,1865.5645,880.5,1861.5645" style="stroke:#A80036;stroke-width:1.0;"/><text fill="#000000" font-family="sans-serif" font-size="13" font-weight="bold" lengthAdjust="spacing" textLength="30" x="880.5" y="1843.8223">1.44</text><text fill="#000000" font-family="sans-serif" font-size="13" lengthAdjust="spacing" textLength="37" x="914.5" y="1843.8223">start()</text><polygon fill="#A80036" points="784.5,1886.875,774.5,1890.875,784.5,1894.875,780.5,1890.875" style="stroke:#A80036;stroke-width:1.0;"/><line style="stroke:#A80036;stroke-width:1.0;" x1="778.5" x2="867.5" y1="1890.875" y2="1890.875"/><text fill="#000000" font-family="sans-serif" font-size="13" font-weight="bold" lengthAdjust="spacing" textLength="30" x="790.5" y="1886.1328">1.45</text><text fill="#000000" font-family="sans-serif" font-size="13" lengthAdjust="spacing" textLength="0" x="828.5" y="1886.1328"/><polygon fill="#A80036" points="48.5,1916.1855,38.5,1920.1855,48.5,1924.1855,44.5,1920.1855" style="stroke:#A80036;stroke-width:1.0;"/><line style="stroke:#A80036;stroke-width:1.0;" x1="42.5" x2="767.5" y1="1920.1855" y2="1920.1855"/><text fill="#000000" font-family="sans-serif" font-size="13" font-weight="bold" lengthAdjust="spacing" textLength="30" x="54.5" y="1915.4434">1.46</text><text fill="#000000" font-family="sans-serif" font-size="13" lengthAdjust="spacing" textLength="0" x="92.5" y="1915.4434"/><text fill="#888888" font-family="sans-serif" font-size="10" lengthAdjust="spacing" textLength="61" x="902.5" y="14.668">@ReionChan</text><text fill="#888888" font-family="sans-serif" font-size="10" lengthAdjust="spacing" textLength="61" x="451.25" y="1986.3418">@ReionChan</text></g></svg>