<?xml version="1.0" encoding="UTF-8" standalone="no"?><svg xmlns="http://www.w3.org/2000/svg" xmlns:xlink="http://www.w3.org/1999/xlink" contentScriptType="application/ecmascript" contentStyleType="text/css" height="1536px" preserveAspectRatio="none" style="width:2135px;height:1536px;background:#F5F5F5;" version="1.1" viewBox="0 0 2135 1536" width="2135px" zoomAndPan="magnify"><defs><filter height="300%" id="fcek40nbm18ok" width="300%" x="-1" y="-1"><feGaussianBlur result="blurOut" stdDeviation="2.0"/><feColorMatrix in="blurOut" result="blurOut2" type="matrix" values="0 0 0 0 0 0 0 0 0 0 0 0 0 0 0 0 0 0 .4 0"/><feOffset dx="4.0" dy="4.0" in="blurOut2" result="blurOut3"/><feBlend in="SourceGraphic" in2="blurOut3" mode="normal"/></filter></defs><g><rect fill="#DDDDDD" height="1494.041" style="stroke:#A80036;stroke-width:1.0;" width="1693.5" x="16" y="20.7773"/><text fill="#000000" font-family="sans-serif" font-size="30" font-weight="bold" lengthAdjust="spacing" textLength="572" x="576.75" y="49.7813">Http11NioProtocol Init&amp;Start Process</text><rect fill="#FFFFFF" filter="url(#fcek40nbm18ok)" height="180.8633" style="stroke:#A80036;stroke-width:1.0;" width="10" x="60" y="159.2188"/><rect fill="#FFFFFF" filter="url(#fcek40nbm18ok)" height="297.1055" style="stroke:#A80036;stroke-width:1.0;" width="10" x="60" y="407.3926"/><rect fill="#FFFFFF" filter="url(#fcek40nbm18ok)" height="594.9004" style="stroke:#A80036;stroke-width:1.0;" width="10" x="60" y="771.8086"/><rect fill="#FFFFFF" filter="url(#fcek40nbm18ok)" height="204.1738" style="stroke:#A80036;stroke-width:1.0;" width="10" x="290" y="500.3242"/><rect fill="#FFFFFF" filter="url(#fcek40nbm18ok)" height="560.5898" style="stroke:#A80036;stroke-width:1.0;" width="10" x="290" y="806.1191"/><rect fill="#FFFFFF" filter="url(#fcek40nbm18ok)" height="50.6211" style="stroke:#A80036;stroke-width:1.0;" width="10" x="886" y="588.2559"/><rect fill="#FFFFFF" filter="url(#fcek40nbm18ok)" height="565.2793" style="stroke:#A80036;stroke-width:1.0;" width="10" x="886" y="902.0508"/><rect fill="#FFFFFF" filter="url(#fcek40nbm18ok)" height="334.416" style="stroke:#A80036;stroke-width:1.0;" width="10" x="891" y="1002.9824"/><rect fill="#FFFFFF" filter="url(#fcek40nbm18ok)" height="278.9844" style="stroke:#A80036;stroke-width:1.0;" width="10" x="1460" y="1188.3457"/><rect fill="#FFFFFF" filter="url(#fcek40nbm18ok)" height="57.1553" style="stroke:#A80036;stroke-width:1.0;" width="10" x="1661" y="1410.1748"/><rect fill="#F5F5F5" filter="url(#fcek40nbm18ok)" height="1346.7324" style="stroke:#000000;stroke-width:2.0;" width="2108" x="10" y="112.5977"/><line style="stroke:#A80036;stroke-width:1.0;stroke-dasharray:5.0,5.0;" x1="65" x2="65" y1="95.5977" y2="1476.3301"/><line style="stroke:#A80036;stroke-width:1.0;stroke-dasharray:5.0,5.0;" x1="294.5" x2="294.5" y1="95.5977" y2="1476.3301"/><line style="stroke:#A80036;stroke-width:1.0;stroke-dasharray:5.0,5.0;" x1="466.5" x2="466.5" y1="95.5977" y2="1476.3301"/><line style="stroke:#A80036;stroke-width:1.0;stroke-dasharray:5.0,5.0;" x1="632.5" x2="632.5" y1="95.5977" y2="1476.3301"/><line style="stroke:#A80036;stroke-width:1.0;stroke-dasharray:5.0,5.0;" x1="768.5" x2="768.5" y1="95.5977" y2="1476.3301"/><line style="stroke:#A80036;stroke-width:1.0;stroke-dasharray:5.0,5.0;" x1="890.5" x2="890.5" y1="95.5977" y2="1476.3301"/><line style="stroke:#A80036;stroke-width:1.0;stroke-dasharray:5.0,5.0;" x1="1061.5" x2="1061.5" y1="95.5977" y2="1476.3301"/><line style="stroke:#A80036;stroke-width:1.0;stroke-dasharray:5.0,5.0;" x1="1228.5" x2="1228.5" y1="95.5977" y2="1476.3301"/><line style="stroke:#A80036;stroke-width:1.0;stroke-dasharray:5.0,5.0;" x1="1373.5" x2="1373.5" y1="95.5977" y2="1476.3301"/><line style="stroke:#A80036;stroke-width:1.0;stroke-dasharray:5.0,5.0;" x1="1464.5" x2="1464.5" y1="95.5977" y2="1476.3301"/><line style="stroke:#A80036;stroke-width:1.0;stroke-dasharray:5.0,5.0;" x1="1665.5" x2="1665.5" y1="95.5977" y2="1476.3301"/><rect fill="#FEFECE" filter="url(#fcek40nbm18ok)" height="30.4883" style="stroke:#A80036;stroke-width:1.5;" width="86" x="20" y="60.1094"/><text fill="#000000" font-family="sans-serif" font-size="14" lengthAdjust="spacing" textLength="72" x="27" y="80.6445">Connector</text><rect fill="#FEFECE" filter="url(#fcek40nbm18ok)" height="30.4883" style="stroke:#A80036;stroke-width:1.5;" width="86" x="20" y="1475.3301"/><text fill="#000000" font-family="sans-serif" font-size="14" lengthAdjust="spacing" textLength="72" x="27" y="1495.8652">Connector</text><rect fill="#FEFECE" filter="url(#fcek40nbm18ok)" height="30.4883" style="stroke:#A80036;stroke-width:1.5;" width="141" x="222.5" y="60.1094"/><text fill="#000000" font-family="sans-serif" font-size="14" lengthAdjust="spacing" textLength="127" x="229.5" y="80.6445">Http11NioProtocol</text><rect fill="#FEFECE" filter="url(#fcek40nbm18ok)" height="30.4883" style="stroke:#A80036;stroke-width:1.5;" width="141" x="222.5" y="1475.3301"/><text fill="#000000" font-family="sans-serif" font-size="14" lengthAdjust="spacing" textLength="127" x="229.5" y="1495.8652">Http11NioProtocol</text><rect fill="#FEFECE" filter="url(#fcek40nbm18ok)" height="30.4883" style="stroke:#A80036;stroke-width:1.5;" width="175" x="377.5" y="60.1094"/><text fill="#000000" font-family="sans-serif" font-size="14" lengthAdjust="spacing" textLength="161" x="384.5" y="80.6445">AbstractHttp11Protocol</text><rect fill="#FEFECE" filter="url(#fcek40nbm18ok)" height="30.4883" style="stroke:#A80036;stroke-width:1.5;" width="175" x="377.5" y="1475.3301"/><text fill="#000000" font-family="sans-serif" font-size="14" lengthAdjust="spacing" textLength="161" x="384.5" y="1495.8652">AbstractHttp11Protocol</text><rect fill="#FEFECE" filter="url(#fcek40nbm18ok)" height="30.4883" style="stroke:#A80036;stroke-width:1.5;" width="128" x="566.5" y="60.1094"/><text fill="#000000" font-family="sans-serif" font-size="14" lengthAdjust="spacing" textLength="114" x="573.5" y="80.6445">AbstractProtocol</text><rect fill="#FEFECE" filter="url(#fcek40nbm18ok)" height="30.4883" style="stroke:#A80036;stroke-width:1.5;" width="128" x="566.5" y="1475.3301"/><text fill="#000000" font-family="sans-serif" font-size="14" lengthAdjust="spacing" textLength="114" x="573.5" y="1495.8652">AbstractProtocol</text><rect fill="#FEFECE" filter="url(#fcek40nbm18ok)" height="30.4883" style="stroke:#A80036;stroke-width:1.5;" width="117" x="708.5" y="60.1094"/><text fill="#000000" font-family="sans-serif" font-size="14" lengthAdjust="spacing" textLength="103" x="715.5" y="80.6445">CoyoteAdapter</text><rect fill="#FEFECE" filter="url(#fcek40nbm18ok)" height="30.4883" style="stroke:#A80036;stroke-width:1.5;" width="117" x="708.5" y="1475.3301"/><text fill="#000000" font-family="sans-serif" font-size="14" lengthAdjust="spacing" textLength="103" x="715.5" y="1495.8652">CoyoteAdapter</text><rect fill="#FEFECE" filter="url(#fcek40nbm18ok)" height="30.4883" style="stroke:#A80036;stroke-width:1.5;" width="99" x="839.5" y="60.1094"/><text fill="#000000" font-family="sans-serif" font-size="14" lengthAdjust="spacing" textLength="85" x="846.5" y="80.6445">NioEndpoint</text><rect fill="#FEFECE" filter="url(#fcek40nbm18ok)" height="30.4883" style="stroke:#A80036;stroke-width:1.5;" width="99" x="839.5" y="1475.3301"/><text fill="#000000" font-family="sans-serif" font-size="14" lengthAdjust="spacing" textLength="85" x="846.5" y="1495.8652">NioEndpoint</text><rect fill="#FEFECE" filter="url(#fcek40nbm18ok)" height="30.4883" style="stroke:#A80036;stroke-width:1.5;" width="147" x="986.5" y="60.1094"/><text fill="#000000" font-family="sans-serif" font-size="14" lengthAdjust="spacing" textLength="133" x="993.5" y="80.6445">ConnectionHandler</text><rect fill="#FEFECE" filter="url(#fcek40nbm18ok)" height="30.4883" style="stroke:#A80036;stroke-width:1.5;" width="147" x="986.5" y="1475.3301"/><text fill="#000000" font-family="sans-serif" font-size="14" lengthAdjust="spacing" textLength="133" x="993.5" y="1495.8652">ConnectionHandler</text><rect fill="#FEFECE" filter="url(#fcek40nbm18ok)" height="30.4883" style="stroke:#A80036;stroke-width:1.5;" width="159" x="1147.5" y="60.1094"/><text fill="#000000" font-family="sans-serif" font-size="14" lengthAdjust="spacing" textLength="145" x="1154.5" y="80.6445">ServerSocketChannel</text><rect fill="#FEFECE" filter="url(#fcek40nbm18ok)" height="30.4883" style="stroke:#A80036;stroke-width:1.5;" width="159" x="1147.5" y="1475.3301"/><text fill="#000000" font-family="sans-serif" font-size="14" lengthAdjust="spacing" textLength="145" x="1154.5" y="1495.8652">ServerSocketChannel</text><rect fill="#FEFECE" filter="url(#fcek40nbm18ok)" height="30.4883" style="stroke:#A80036;stroke-width:1.5;" width="102" x="1320.5" y="60.1094"/><text fill="#000000" font-family="sans-serif" font-size="14" lengthAdjust="spacing" textLength="88" x="1327.5" y="80.6445">ServerSocket</text><rect fill="#FEFECE" filter="url(#fcek40nbm18ok)" height="30.4883" style="stroke:#A80036;stroke-width:1.5;" width="102" x="1320.5" y="1475.3301"/><text fill="#000000" font-family="sans-serif" font-size="14" lengthAdjust="spacing" textLength="88" x="1327.5" y="1495.8652">ServerSocket</text><rect fill="#FEFECE" filter="url(#fcek40nbm18ok)" height="30.4883" style="stroke:#A80036;stroke-width:1.5;" width="53" x="1436.5" y="60.1094"/><text fill="#000000" font-family="sans-serif" font-size="14" lengthAdjust="spacing" textLength="39" x="1443.5" y="80.6445">Poller</text><rect fill="#FEFECE" filter="url(#fcek40nbm18ok)" height="30.4883" style="stroke:#A80036;stroke-width:1.5;" width="53" x="1436.5" y="1475.3301"/><text fill="#000000" font-family="sans-serif" font-size="14" lengthAdjust="spacing" textLength="39" x="1443.5" y="1495.8652">Poller</text><rect fill="#FEFECE" filter="url(#fcek40nbm18ok)" height="30.4883" style="stroke:#A80036;stroke-width:1.5;" width="75" x="1626.5" y="60.1094"/><text fill="#000000" font-family="sans-serif" font-size="14" lengthAdjust="spacing" textLength="61" x="1633.5" y="80.6445">Acceptor</text><rect fill="#FEFECE" filter="url(#fcek40nbm18ok)" height="30.4883" style="stroke:#A80036;stroke-width:1.5;" width="75" x="1626.5" y="1475.3301"/><text fill="#000000" font-family="sans-serif" font-size="14" lengthAdjust="spacing" textLength="61" x="1633.5" y="1495.8652">Acceptor</text><rect fill="#FFFFFF" filter="url(#fcek40nbm18ok)" height="180.8633" style="stroke:#A80036;stroke-width:1.0;" width="10" x="60" y="159.2188"/><rect fill="#FFFFFF" filter="url(#fcek40nbm18ok)" height="297.1055" style="stroke:#A80036;stroke-width:1.0;" width="10" x="60" y="407.3926"/><rect fill="#FFFFFF" filter="url(#fcek40nbm18ok)" height="594.9004" style="stroke:#A80036;stroke-width:1.0;" width="10" x="60" y="771.8086"/><rect fill="#FFFFFF" filter="url(#fcek40nbm18ok)" height="204.1738" style="stroke:#A80036;stroke-width:1.0;" width="10" x="290" y="500.3242"/><rect fill="#FFFFFF" filter="url(#fcek40nbm18ok)" height="560.5898" style="stroke:#A80036;stroke-width:1.0;" width="10" x="290" y="806.1191"/><rect fill="#FFFFFF" filter="url(#fcek40nbm18ok)" height="50.6211" style="stroke:#A80036;stroke-width:1.0;" width="10" x="886" y="588.2559"/><rect fill="#FFFFFF" filter="url(#fcek40nbm18ok)" height="565.2793" style="stroke:#A80036;stroke-width:1.0;" width="10" x="886" y="902.0508"/><rect fill="#FFFFFF" filter="url(#fcek40nbm18ok)" height="334.416" style="stroke:#A80036;stroke-width:1.0;" width="10" x="891" y="1002.9824"/><rect fill="#FFFFFF" filter="url(#fcek40nbm18ok)" height="278.9844" style="stroke:#A80036;stroke-width:1.0;" width="10" x="1460" y="1188.3457"/><rect fill="#FFFFFF" filter="url(#fcek40nbm18ok)" height="57.1553" style="stroke:#A80036;stroke-width:1.0;" width="10" x="1661" y="1410.1748"/><path d="M10,112.5977 L172,112.5977 L172,119.5977 L162,129.5977 L10,129.5977 L10,112.5977 " fill="#FFD700" style="stroke:#000000;stroke-width:1.0;"/><rect fill="none" height="1346.7324" style="stroke:#000000;stroke-width:2.0;" width="2108" x="10" y="112.5977"/><text fill="#000000" font-family="sans-serif" font-size="13" font-weight="bold" lengthAdjust="spacing" textLength="117" x="25" y="126.166">服务端连接启动流程</text><line style="stroke:#A80036;stroke-width:1.0;" x1="65" x2="112" y1="146.2188" y2="146.2188"/><line style="stroke:#A80036;stroke-width:1.0;" x1="112" x2="112" y1="146.2188" y2="159.2188"/><line style="stroke:#A80036;stroke-width:1.0;" x1="71" x2="112" y1="159.2188" y2="159.2188"/><polygon fill="#A80036" points="81,155.2188,71,159.2188,81,163.2188,77,159.2188" style="stroke:#A80036;stroke-width:1.0;"/><text fill="#000000" font-family="sans-serif" font-size="13" font-weight="bold" lengthAdjust="spacing" textLength="21" x="77" y="141.4766">1.1</text><text fill="#000000" font-family="sans-serif" font-size="13" lengthAdjust="spacing" textLength="191" x="102" y="141.4766">Connector(Http11NioProtocol)</text><polygon fill="#A80036" points="283,189.5293,293,193.5293,283,197.5293,287,193.5293" style="stroke:#A80036;stroke-width:1.0;"/><line style="stroke:#A80036;stroke-width:1.0;" x1="70" x2="289" y1="193.5293" y2="193.5293"/><text fill="#000000" font-family="sans-serif" font-size="13" font-weight="bold" lengthAdjust="spacing" textLength="21" x="77" y="188.7871">1.2</text><text fill="#000000" font-family="sans-serif" font-size="13" lengthAdjust="spacing" textLength="86" x="102" y="188.7871">newInstance()</text><polygon fill="#A80036" points="879,218.8398,889,222.8398,879,226.8398,883,222.8398" style="stroke:#A80036;stroke-width:1.0;"/><line style="stroke:#A80036;stroke-width:1.0;" x1="295" x2="885" y1="222.8398" y2="222.8398"/><text fill="#000000" font-family="sans-serif" font-size="13" font-weight="bold" lengthAdjust="spacing" textLength="21" x="302" y="218.0977">1.3</text><text fill="#000000" font-family="sans-serif" font-size="13" lengthAdjust="spacing" textLength="25" x="327" y="218.0977">new</text><polygon fill="#A80036" points="1050,248.1504,1060,252.1504,1050,256.1504,1054,252.1504" style="stroke:#A80036;stroke-width:1.0;"/><line style="stroke:#A80036;stroke-width:1.0;" x1="467" x2="1056" y1="252.1504" y2="252.1504"/><text fill="#000000" font-family="sans-serif" font-size="13" font-weight="bold" lengthAdjust="spacing" textLength="21" x="474" y="247.4082">1.4</text><text fill="#000000" font-family="sans-serif" font-size="13" lengthAdjust="spacing" textLength="25" x="499" y="247.4082">new</text><polygon fill="#A80036" points="879,277.4609,889,281.4609,879,285.4609,883,281.4609" style="stroke:#A80036;stroke-width:1.0;"/><line style="stroke:#A80036;stroke-width:1.0;" x1="467" x2="885" y1="281.4609" y2="281.4609"/><text fill="#000000" font-family="sans-serif" font-size="13" font-weight="bold" lengthAdjust="spacing" textLength="21" x="474" y="276.7188">1.5</text><text fill="#000000" font-family="sans-serif" font-size="13" lengthAdjust="spacing" textLength="157" x="499" y="276.7188">setHandler() 赋值 handler</text><polygon fill="#A80036" points="306,306.7715,296,310.7715,306,314.7715,302,310.7715" style="stroke:#A80036;stroke-width:1.0;"/><line style="stroke:#A80036;stroke-width:1.0;" x1="300" x2="890" y1="310.7715" y2="310.7715"/><text fill="#000000" font-family="sans-serif" font-size="13" font-weight="bold" lengthAdjust="spacing" textLength="21" x="312" y="306.0293">1.6</text><text fill="#000000" font-family="sans-serif" font-size="13" lengthAdjust="spacing" textLength="86" x="337" y="306.0293">赋值 endpoint</text><polygon fill="#A80036" points="76,336.082,66,340.082,76,344.082,72,340.082" style="stroke:#A80036;stroke-width:1.0;"/><line style="stroke:#A80036;stroke-width:1.0;" x1="70" x2="294" y1="340.082" y2="340.082"/><text fill="#000000" font-family="sans-serif" font-size="13" font-weight="bold" lengthAdjust="spacing" textLength="21" x="82" y="335.3398">1.7</text><text fill="#000000" font-family="sans-serif" font-size="13" lengthAdjust="spacing" textLength="132" x="107" y="335.3398">赋值 protocolHandler</text><line style="stroke:#A80036;stroke-width:1.0;" x1="65" x2="112" y1="394.3926" y2="394.3926"/><line style="stroke:#A80036;stroke-width:1.0;" x1="112" x2="112" y1="394.3926" y2="407.3926"/><line style="stroke:#A80036;stroke-width:1.0;" x1="71" x2="112" y1="407.3926" y2="407.3926"/><polygon fill="#A80036" points="81,403.3926,71,407.3926,81,411.3926,77,407.3926" style="stroke:#A80036;stroke-width:1.0;"/><text fill="#000000" font-family="sans-serif" font-size="13" font-weight="bold" lengthAdjust="spacing" textLength="21" x="77" y="389.6504">2.1</text><text fill="#000000" font-family="sans-serif" font-size="13" lengthAdjust="spacing" textLength="77" x="102" y="389.6504">initInternal()</text><polygon fill="#A80036" points="757,437.7031,767,441.7031,757,445.7031,761,441.7031" style="stroke:#A80036;stroke-width:1.0;"/><line style="stroke:#A80036;stroke-width:1.0;" x1="70" x2="763" y1="441.7031" y2="441.7031"/><text fill="#000000" font-family="sans-serif" font-size="13" font-weight="bold" lengthAdjust="spacing" textLength="21" x="77" y="436.9609">2.2</text><text fill="#000000" font-family="sans-serif" font-size="13" lengthAdjust="spacing" textLength="25" x="102" y="436.9609">new</text><polygon fill="#A80036" points="283,467.0137,293,471.0137,283,475.0137,287,471.0137" style="stroke:#A80036;stroke-width:1.0;"/><line style="stroke:#A80036;stroke-width:1.0;" x1="70" x2="289" y1="471.0137" y2="471.0137"/><text fill="#000000" font-family="sans-serif" font-size="13" font-weight="bold" lengthAdjust="spacing" textLength="21" x="77" y="466.2715">2.3</text><text fill="#000000" font-family="sans-serif" font-size="13" lengthAdjust="spacing" textLength="123" x="102" y="466.2715">setAdapter(adapter)</text><polygon fill="#A80036" points="278,496.3242,288,500.3242,278,504.3242,282,500.3242" style="stroke:#A80036;stroke-width:1.0;"/><line style="stroke:#A80036;stroke-width:1.0;" x1="70" x2="284" y1="500.3242" y2="500.3242"/><text fill="#000000" font-family="sans-serif" font-size="13" font-weight="bold" lengthAdjust="spacing" textLength="21" x="77" y="495.582">2.4</text><text fill="#000000" font-family="sans-serif" font-size="13" lengthAdjust="spacing" textLength="29" x="102" y="495.582">init()</text><polygon fill="#A80036" points="455,525.6348,465,529.6348,455,533.6348,459,529.6348" style="stroke:#A80036;stroke-width:1.0;"/><line style="stroke:#A80036;stroke-width:1.0;" x1="300" x2="461" y1="529.6348" y2="529.6348"/><text fill="#000000" font-family="sans-serif" font-size="13" font-weight="bold" lengthAdjust="spacing" textLength="21" x="307" y="524.8926">2.5</text><text fill="#000000" font-family="sans-serif" font-size="13" lengthAdjust="spacing" textLength="29" x="332" y="524.8926">init()</text><polygon fill="#A80036" points="620.5,554.9453,630.5,558.9453,620.5,562.9453,624.5,558.9453" style="stroke:#A80036;stroke-width:1.0;"/><line style="stroke:#A80036;stroke-width:1.0;" x1="467" x2="626.5" y1="558.9453" y2="558.9453"/><text fill="#000000" font-family="sans-serif" font-size="13" font-weight="bold" lengthAdjust="spacing" textLength="21" x="474" y="554.2031">2.6</text><text fill="#000000" font-family="sans-serif" font-size="13" lengthAdjust="spacing" textLength="29" x="499" y="554.2031">init()</text><polygon fill="#A80036" points="874,584.2559,884,588.2559,874,592.2559,878,588.2559" style="stroke:#A80036;stroke-width:1.0;"/><line style="stroke:#A80036;stroke-width:1.0;" x1="632.5" x2="880" y1="588.2559" y2="588.2559"/><text fill="#000000" font-family="sans-serif" font-size="13" font-weight="bold" lengthAdjust="spacing" textLength="21" x="639.5" y="583.5137">2.7</text><text fill="#000000" font-family="sans-serif" font-size="13" lengthAdjust="spacing" textLength="29" x="664.5" y="583.5137">init()</text><line style="stroke:#A80036;stroke-width:1.0;" x1="896" x2="938" y1="637.877" y2="637.877"/><line style="stroke:#A80036;stroke-width:1.0;" x1="938" x2="938" y1="637.877" y2="650.877"/><line style="stroke:#A80036;stroke-width:1.0;" x1="891" x2="938" y1="650.877" y2="650.877"/><polygon fill="#A80036" points="901,646.877,891,650.877,901,654.877,897,650.877" style="stroke:#A80036;stroke-width:1.0;"/><text fill="#000000" font-family="sans-serif" font-size="13" font-weight="bold" lengthAdjust="spacing" textLength="21" x="903" y="625.4795">2.8</text><text fill="#000000" font-family="sans-serif" font-size="13" lengthAdjust="spacing" textLength="107" x="928" y="617.8242">bindOnInit=false</text><text fill="#000000" font-family="sans-serif" font-size="13" lengthAdjust="spacing" textLength="92" x="928" y="633.1348">延迟执行 bind()</text><polygon fill="#A80036" points="311,671.1875,301,675.1875,311,679.1875,307,675.1875" style="stroke:#A80036;stroke-width:1.0;"/><line style="stroke:#A80036;stroke-width:1.0;" x1="305" x2="890" y1="675.1875" y2="675.1875"/><text fill="#000000" font-family="sans-serif" font-size="13" font-weight="bold" lengthAdjust="spacing" textLength="21" x="317" y="670.4453">2.9</text><text fill="#000000" font-family="sans-serif" font-size="13" lengthAdjust="spacing" textLength="0" x="346" y="670.4453"/><polygon fill="#A80036" points="76,700.498,66,704.498,76,708.498,72,704.498" style="stroke:#A80036;stroke-width:1.0;"/><line style="stroke:#A80036;stroke-width:1.0;" x1="70" x2="294" y1="704.498" y2="704.498"/><text fill="#000000" font-family="sans-serif" font-size="13" font-weight="bold" lengthAdjust="spacing" textLength="30" x="82" y="699.7559">2.10</text><text fill="#000000" font-family="sans-serif" font-size="13" lengthAdjust="spacing" textLength="0" x="120" y="699.7559"/><line style="stroke:#A80036;stroke-width:1.0;" x1="65" x2="112" y1="758.8086" y2="758.8086"/><line style="stroke:#A80036;stroke-width:1.0;" x1="112" x2="112" y1="758.8086" y2="771.8086"/><line style="stroke:#A80036;stroke-width:1.0;" x1="71" x2="112" y1="771.8086" y2="771.8086"/><polygon fill="#A80036" points="81,767.8086,71,771.8086,81,775.8086,77,771.8086" style="stroke:#A80036;stroke-width:1.0;"/><text fill="#000000" font-family="sans-serif" font-size="13" font-weight="bold" lengthAdjust="spacing" textLength="21" x="77" y="754.0664">3.1</text><text fill="#000000" font-family="sans-serif" font-size="13" lengthAdjust="spacing" textLength="85" x="102" y="754.0664">startInternal()</text><polygon fill="#A80036" points="278,802.1191,288,806.1191,278,810.1191,282,806.1191" style="stroke:#A80036;stroke-width:1.0;"/><line style="stroke:#A80036;stroke-width:1.0;" x1="70" x2="284" y1="806.1191" y2="806.1191"/><text fill="#000000" font-family="sans-serif" font-size="13" font-weight="bold" lengthAdjust="spacing" textLength="21" x="77" y="801.377">3.2</text><text fill="#000000" font-family="sans-serif" font-size="13" lengthAdjust="spacing" textLength="37" x="102" y="801.377">start()</text><polygon fill="#A80036" points="620.5,831.4297,630.5,835.4297,620.5,839.4297,624.5,835.4297" style="stroke:#A80036;stroke-width:1.0;"/><line style="stroke:#A80036;stroke-width:1.0;" x1="300" x2="626.5" y1="835.4297" y2="835.4297"/><text fill="#000000" font-family="sans-serif" font-size="13" font-weight="bold" lengthAdjust="spacing" textLength="21" x="307" y="830.6875">3.3</text><text fill="#000000" font-family="sans-serif" font-size="13" lengthAdjust="spacing" textLength="37" x="332" y="830.6875">start()</text><polygon fill="#A80036" points="879,860.7402,889,864.7402,879,868.7402,883,864.7402" style="stroke:#A80036;stroke-width:1.0;"/><line style="stroke:#A80036;stroke-width:1.0;" x1="632.5" x2="885" y1="864.7402" y2="864.7402"/><text fill="#000000" font-family="sans-serif" font-size="13" font-weight="bold" lengthAdjust="spacing" textLength="21" x="639.5" y="859.998">3.4</text><text fill="#000000" font-family="sans-serif" font-size="13" lengthAdjust="spacing" textLength="37" x="664.5" y="859.998">start()</text><line style="stroke:#A80036;stroke-width:1.0;" x1="891" x2="938" y1="889.0508" y2="889.0508"/><line style="stroke:#A80036;stroke-width:1.0;" x1="938" x2="938" y1="889.0508" y2="902.0508"/><line style="stroke:#A80036;stroke-width:1.0;" x1="897" x2="938" y1="902.0508" y2="902.0508"/><polygon fill="#A80036" points="907,898.0508,897,902.0508,907,906.0508,903,902.0508" style="stroke:#A80036;stroke-width:1.0;"/><text fill="#000000" font-family="sans-serif" font-size="13" font-weight="bold" lengthAdjust="spacing" textLength="21" x="903" y="884.3086">3.5</text><text fill="#000000" font-family="sans-serif" font-size="13" lengthAdjust="spacing" textLength="118" x="928" y="884.3086">启动后才执行 bind()</text><polygon fill="#A80036" points="1217,932.3613,1227,936.3613,1217,940.3613,1221,936.3613" style="stroke:#A80036;stroke-width:1.0;"/><line style="stroke:#A80036;stroke-width:1.0;" x1="896" x2="1223" y1="936.3613" y2="936.3613"/><text fill="#000000" font-family="sans-serif" font-size="13" font-weight="bold" lengthAdjust="spacing" textLength="21" x="903" y="931.6191">3.6</text><text fill="#000000" font-family="sans-serif" font-size="13" lengthAdjust="spacing" textLength="174" x="928" y="931.6191">ServerSocketChannel.open()</text><polygon fill="#A80036" points="1361.5,961.6719,1371.5,965.6719,1361.5,969.6719,1365.5,965.6719" style="stroke:#A80036;stroke-width:1.0;"/><line style="stroke:#A80036;stroke-width:1.0;" x1="1229" x2="1367.5" y1="965.6719" y2="965.6719"/><text fill="#000000" font-family="sans-serif" font-size="13" font-weight="bold" lengthAdjust="spacing" textLength="21" x="1236" y="960.9297">3.7</text><text fill="#000000" font-family="sans-serif" font-size="13" lengthAdjust="spacing" textLength="36" x="1261" y="960.9297">bind()</text><line style="stroke:#A80036;stroke-width:1.0;" x1="896" x2="943" y1="989.9824" y2="989.9824"/><line style="stroke:#A80036;stroke-width:1.0;" x1="943" x2="943" y1="989.9824" y2="1002.9824"/><line style="stroke:#A80036;stroke-width:1.0;" x1="902" x2="943" y1="1002.9824" y2="1002.9824"/><polygon fill="#A80036" points="912,998.9824,902,1002.9824,912,1006.9824,908,1002.9824" style="stroke:#A80036;stroke-width:1.0;"/><text fill="#000000" font-family="sans-serif" font-size="13" font-weight="bold" lengthAdjust="spacing" textLength="21" x="908" y="985.2402">3.8</text><text fill="#000000" font-family="sans-serif" font-size="13" lengthAdjust="spacing" textLength="85" x="933" y="985.2402">startInternal()</text><line style="stroke:#A80036;stroke-width:1.0;" x1="901" x2="943" y1="1052.6035" y2="1052.6035"/><line style="stroke:#A80036;stroke-width:1.0;" x1="943" x2="943" y1="1052.6035" y2="1065.6035"/><line style="stroke:#A80036;stroke-width:1.0;" x1="902" x2="943" y1="1065.6035" y2="1065.6035"/><polygon fill="#A80036" points="912,1061.6035,902,1065.6035,912,1069.6035,908,1065.6035" style="stroke:#A80036;stroke-width:1.0;"/><text fill="#000000" font-family="sans-serif" font-size="13" font-weight="bold" lengthAdjust="spacing" textLength="21" x="908" y="1040.2061">3.9</text><text fill="#000000" font-family="sans-serif" font-size="13" lengthAdjust="spacing" textLength="101" x="933" y="1032.5508">createExecutor()</text><text fill="#000000" font-family="sans-serif" font-size="13" lengthAdjust="spacing" textLength="117" x="933" y="1047.8613">创建 Worker 线程池</text><polygon fill="#A80036" points="1453,1090.9141,1463,1094.9141,1453,1098.9141,1457,1094.9141" style="stroke:#A80036;stroke-width:1.0;"/><line style="stroke:#A80036;stroke-width:1.0;" x1="901" x2="1459" y1="1094.9141" y2="1094.9141"/><text fill="#000000" font-family="sans-serif" font-size="13" font-weight="bold" lengthAdjust="spacing" textLength="30" x="908" y="1090.1719">3.10</text><text fill="#000000" font-family="sans-serif" font-size="13" lengthAdjust="spacing" textLength="95" x="942" y="1090.1719">创建 Poller 线程</text><line style="stroke:#A80036;stroke-width:1.0;" x1="1465" x2="1507" y1="1124.2246" y2="1124.2246"/><line style="stroke:#A80036;stroke-width:1.0;" x1="1507" x2="1507" y1="1124.2246" y2="1137.2246"/><line style="stroke:#A80036;stroke-width:1.0;" x1="1466" x2="1507" y1="1137.2246" y2="1137.2246"/><polygon fill="#A80036" points="1476,1133.2246,1466,1137.2246,1476,1141.2246,1472,1137.2246" style="stroke:#A80036;stroke-width:1.0;"/><text fill="#000000" font-family="sans-serif" font-size="13" font-weight="bold" lengthAdjust="spacing" textLength="30" x="1472" y="1119.4824">3.11</text><text fill="#000000" font-family="sans-serif" font-size="13" lengthAdjust="spacing" textLength="153" x="1506" y="1119.4824">selector=Selector.open()</text><line style="stroke:#A80036;stroke-width:1.0;" x1="1465" x2="1512" y1="1175.3457" y2="1175.3457"/><line style="stroke:#A80036;stroke-width:1.0;" x1="1512" x2="1512" y1="1175.3457" y2="1188.3457"/><line style="stroke:#A80036;stroke-width:1.0;" x1="1471" x2="1512" y1="1188.3457" y2="1188.3457"/><polygon fill="#A80036" points="1481,1184.3457,1471,1188.3457,1481,1192.3457,1477,1188.3457" style="stroke:#A80036;stroke-width:1.0;"/><text fill="#000000" font-family="sans-serif" font-size="13" font-weight="bold" lengthAdjust="spacing" textLength="30" x="1477" y="1170.6035">3.12</text><text fill="#000000" font-family="sans-serif" font-size="13" lengthAdjust="spacing" textLength="29" x="1511" y="1170.6035">run()</text><path d="M1552,1150.2246 L1552,1205.2246 L1907,1205.2246 L1907,1160.2246 L1897,1150.2246 L1552,1150.2246 " fill="#FBFB77" filter="url(#fcek40nbm18ok)" style="stroke:#A80036;stroke-width:1.0;"/><path d="M1897,1150.2246 L1897,1160.2246 L1907,1160.2246 L1897,1150.2246 " fill="#FBFB77" style="stroke:#A80036;stroke-width:1.0;"/><text fill="#000000" font-family="sans-serif" font-size="13" lengthAdjust="spacing" textLength="334" x="1558" y="1167.793">1. 从事件队列获取 PollerEvent 事件，并执行事件的 run()</text><text fill="#000000" font-family="sans-serif" font-size="13" lengthAdjust="spacing" textLength="315" x="1570" y="1183.1035">从而将 SocketChannel 从此类 selector 中注册或剔除</text><text fill="#000000" font-family="sans-serif" font-size="13" lengthAdjust="spacing" textLength="317" x="1558" y="1198.4141">2. 轮询此类 selector 中的 SelectionKey 进行读写处理</text><polygon fill="#A80036" points="1654,1232.4668,1664,1236.4668,1654,1240.4668,1658,1236.4668" style="stroke:#A80036;stroke-width:1.0;"/><line style="stroke:#A80036;stroke-width:1.0;" x1="901" x2="1660" y1="1236.4668" y2="1236.4668"/><text fill="#000000" font-family="sans-serif" font-size="13" font-weight="bold" lengthAdjust="spacing" textLength="30" x="908" y="1231.7246">3.13</text><text fill="#000000" font-family="sans-serif" font-size="13" lengthAdjust="spacing" textLength="116" x="942" y="1231.7246">创建 Acceptor 线程</text><line style="stroke:#A80036;stroke-width:1.0;" x1="1666" x2="1708" y1="1265.7773" y2="1265.7773"/><line style="stroke:#A80036;stroke-width:1.0;" x1="1708" x2="1708" y1="1265.7773" y2="1278.7773"/><line style="stroke:#A80036;stroke-width:1.0;" x1="1667" x2="1708" y1="1278.7773" y2="1278.7773"/><polygon fill="#A80036" points="1677,1274.7773,1667,1278.7773,1677,1282.7773,1673,1278.7773" style="stroke:#A80036;stroke-width:1.0;"/><text fill="#000000" font-family="sans-serif" font-size="13" font-weight="bold" lengthAdjust="spacing" textLength="30" x="1673" y="1261.0352">3.14</text><text fill="#000000" font-family="sans-serif" font-size="13" lengthAdjust="spacing" textLength="25" x="1707" y="1261.0352">new</text><polygon fill="#A80036" points="1654,1304.0879,1664,1308.0879,1654,1312.0879,1658,1308.0879" style="stroke:#A80036;stroke-width:1.0;"/><line style="stroke:#A80036;stroke-width:1.0;" x1="901" x2="1660" y1="1308.0879" y2="1308.0879"/><text fill="#000000" font-family="sans-serif" font-size="13" font-weight="bold" lengthAdjust="spacing" textLength="30" x="908" y="1303.3457">3.15</text><text fill="#000000" font-family="sans-serif" font-size="13" lengthAdjust="spacing" textLength="37" x="942" y="1303.3457">start()</text><polygon fill="#A80036" points="311,1333.3984,301,1337.3984,311,1341.3984,307,1337.3984" style="stroke:#A80036;stroke-width:1.0;"/><line style="stroke:#A80036;stroke-width:1.0;" x1="305" x2="885" y1="1337.3984" y2="1337.3984"/><text fill="#000000" font-family="sans-serif" font-size="13" font-weight="bold" lengthAdjust="spacing" textLength="30" x="317" y="1332.6563">3.16</text><text fill="#000000" font-family="sans-serif" font-size="13" lengthAdjust="spacing" textLength="0" x="355" y="1332.6563"/><polygon fill="#A80036" points="76,1362.709,66,1366.709,76,1370.709,72,1366.709" style="stroke:#A80036;stroke-width:1.0;"/><line style="stroke:#A80036;stroke-width:1.0;" x1="70" x2="294" y1="1366.709" y2="1366.709"/><text fill="#000000" font-family="sans-serif" font-size="13" font-weight="bold" lengthAdjust="spacing" textLength="30" x="82" y="1361.9668">3.17</text><text fill="#000000" font-family="sans-serif" font-size="13" lengthAdjust="spacing" textLength="0" x="120" y="1361.9668"/><line style="stroke:#A80036;stroke-width:1.0;" x1="1666" x2="1713" y1="1397.1748" y2="1397.1748"/><line style="stroke:#A80036;stroke-width:1.0;" x1="1713" x2="1713" y1="1397.1748" y2="1410.1748"/><line style="stroke:#A80036;stroke-width:1.0;" x1="1672" x2="1713" y1="1410.1748" y2="1410.1748"/><polygon fill="#A80036" points="1682,1406.1748,1672,1410.1748,1682,1414.1748,1678,1410.1748" style="stroke:#A80036;stroke-width:1.0;"/><text fill="#000000" font-family="sans-serif" font-size="13" font-weight="bold" lengthAdjust="spacing" textLength="30" x="1678" y="1392.4326">3.18</text><text fill="#000000" font-family="sans-serif" font-size="13" lengthAdjust="spacing" textLength="29" x="1712" y="1392.4326">run()</text><path d="M1753,1379.709 L1753,1419.709 L2099,1419.709 L2099,1389.709 L2089,1379.709 L1753,1379.709 " fill="#FBFB77" filter="url(#fcek40nbm18ok)" style="stroke:#A80036;stroke-width:1.0;"/><path d="M2089,1379.709 L2089,1389.709 L2099,1389.709 L2089,1379.709 " fill="#FBFB77" style="stroke:#A80036;stroke-width:1.0;"/><text fill="#000000" font-family="sans-serif" font-size="13" lengthAdjust="spacing" textLength="325" x="1759" y="1397.2773">接受客户端 SocketChannel 将其封装为 NioChannel 后</text><text fill="#000000" font-family="sans-serif" font-size="13" lengthAdjust="spacing" textLength="306" x="1759" y="1412.5879">注册到 NioEndpoint.Poller 的 PollerEvent 事件队列</text><text fill="#888888" font-family="sans-serif" font-size="10" lengthAdjust="spacing" textLength="61" x="2067" y="14.668">@ReionChan</text><text fill="#888888" font-family="sans-serif" font-size="10" lengthAdjust="spacing" textLength="61" x="1033.5" y="1528.4863">@ReionChan</text></g></svg>