<?xml version="1.0" encoding="UTF-8" standalone="no"?><svg xmlns="http://www.w3.org/2000/svg" xmlns:xlink="http://www.w3.org/1999/xlink" contentScriptType="application/ecmascript" contentStyleType="text/css" height="1022px" preserveAspectRatio="none" style="width:2198px;height:1022px;background:#F5F5F5;" version="1.1" viewBox="0 0 2198 1022" width="2198px" zoomAndPan="magnify"><defs><filter height="300%" id="f1mwhp9j2r6alx" width="300%" x="-1" y="-1"><feGaussianBlur result="blurOut" stdDeviation="2.0"/><feColorMatrix in="blurOut" result="blurOut2" type="matrix" values="0 0 0 0 0 0 0 0 0 0 0 0 0 0 0 0 0 0 .4 0"/><feOffset dx="4.0" dy="4.0" in="blurOut2" result="blurOut3"/><feBlend in="SourceGraphic" in2="blurOut3" mode="normal"/></filter></defs><g><text fill="#888888" font-family="sans-serif" font-size="10" lengthAdjust="spacing" textLength="61" x="2124" y="9.668">@ReionChan</text><text fill="#000000" font-family="sans-serif" font-size="30" lengthAdjust="spacing" textLength="295" x="945" y="40.7813">Tomcat Architecture</text><!--MD5=[979da56a7f83e2393dc758167ae295d0]
cluster Server--><rect fill="#F5DEB3" filter="url(#f1mwhp9j2r6alx)" height="939" style="stroke:#000000;stroke-width:1.5;" width="2179" x="7" y="54.1094"/><path d="M61,54.1094 L61,63.5977 L51,73.5977 L7,73.5977 " fill="none" style="stroke:#000000;stroke-width:1.5;"/><text fill="#000000" font-family="sans-serif" font-size="14" font-weight="bold" lengthAdjust="spacing" textLength="44" x="10" y="68.6445">Server</text><!--MD5=[967d15cbb8e58fb102d2d621319b1725]
cluster Service Collection--><polygon fill="#D3D3D3" filter="url(#f1mwhp9j2r6alx)" points="31,107.1094,41,97.1094,2162,97.1094,2162,959.1094,2152,969.1094,31,969.1094,31,107.1094" style="stroke:#000000;stroke-width:1.5;"/><line style="stroke:#000000;stroke-width:1.5;" x1="2152" x2="2162" y1="107.1094" y2="97.1094"/><line style="stroke:#000000;stroke-width:1.5;" x1="31" x2="2152" y1="107.1094" y2="107.1094"/><line style="stroke:#000000;stroke-width:1.5;" x1="2152" x2="2152" y1="107.1094" y2="969.1094"/><text fill="#000000" font-family="sans-serif" font-size="14" font-weight="bold" lengthAdjust="spacing" textLength="128" x="1028.5" y="123.6445">Service Collection</text><!--MD5=[9dd75fd92da113d30380b27734fd2f01]
cluster Service--><rect fill="#C2F0FF" filter="url(#f1mwhp9j2r6alx)" height="800" style="stroke:#000000;stroke-width:1.5;" width="2083" x="55" y="145.1094"/><path d="M115,145.1094 L115,154.5977 L105,164.5977 L55,164.5977 " fill="none" style="stroke:#000000;stroke-width:1.5;"/><text fill="#000000" font-family="sans-serif" font-size="14" font-weight="bold" lengthAdjust="spacing" textLength="50" x="58" y="159.6445">Service</text><!--MD5=[6fc51d3c46c739bd9bf2b56db162b500]
cluster Catalina Servlet Container--><rect fill="#FFE4C4" filter="url(#f1mwhp9j2r6alx)" height="648" style="stroke:#000000;stroke-width:1.5;" width="1187" x="927" y="188.1094"/><rect fill="#FFE4C4" height="10" style="stroke:#000000;stroke-width:1.5;" width="15" x="2094" y="193.1094"/><rect fill="#FFE4C4" height="2" style="stroke:#000000;stroke-width:1.5;" width="4" x="2092" y="195.1094"/><rect fill="#FFE4C4" height="2" style="stroke:#000000;stroke-width:1.5;" width="4" x="2092" y="199.1094"/><text fill="#000000" font-family="sans-serif" font-size="14" font-weight="bold" lengthAdjust="spacing" textLength="188" x="1426.5" y="214.6445">Catalina Servlet Container</text><!--MD5=[e471781225fc0f8fbd677bbc1a50d018]
cluster engine--><rect fill="#DDA0DD" filter="url(#f1mwhp9j2r6alx)" height="581" style="stroke:#000000;stroke-width:1.5;" width="1139" x="951" y="231.1094"/><path d="M1009,231.1094 L1009,240.5977 L999,250.5977 L951,250.5977 " fill="none" style="stroke:#000000;stroke-width:1.5;"/><text fill="#000000" font-family="sans-serif" font-size="14" font-weight="bold" lengthAdjust="spacing" textLength="48" x="954" y="245.6445">Engine</text><!--MD5=[cfd7c87ed5eec24ca9822be118e10478]
cluster Host Collection--><polygon fill="#D3D3D3" filter="url(#f1mwhp9j2r6alx)" points="1087,284.1094,1097,274.1094,2066,274.1094,2066,778.1094,2056,788.1094,1087,788.1094,1087,284.1094" style="stroke:#000000;stroke-width:1.5;"/><line style="stroke:#000000;stroke-width:1.5;" x1="2056" x2="2066" y1="284.1094" y2="274.1094"/><line style="stroke:#000000;stroke-width:1.5;" x1="1087" x2="2056" y1="284.1094" y2="284.1094"/><line style="stroke:#000000;stroke-width:1.5;" x1="2056" x2="2056" y1="284.1094" y2="788.1094"/><text fill="#000000" font-family="sans-serif" font-size="14" font-weight="bold" lengthAdjust="spacing" textLength="112" x="1516.5" y="300.6445">Host Collection</text><!--MD5=[c018863fe2304e0ca952616611326b6e]
cluster Host--><rect fill="#ADD8E6" filter="url(#f1mwhp9j2r6alx)" height="442" style="stroke:#000000;stroke-width:1.5;" width="931" x="1111" y="322.1094"/><path d="M1155,322.1094 L1155,331.5977 L1145,341.5977 L1111,341.5977 " fill="none" style="stroke:#000000;stroke-width:1.5;"/><text fill="#000000" font-family="sans-serif" font-size="14" font-weight="bold" lengthAdjust="spacing" textLength="34" x="1114" y="336.6445">Host</text><!--MD5=[6bd150304df04fecf04cc8fbb12e98da]
cluster Context Collection--><polygon fill="#D3D3D3" filter="url(#f1mwhp9j2r6alx)" points="1247,375.1094,1257,365.1094,2018,365.1094,2018,730.1094,2008,740.1094,1247,740.1094,1247,375.1094" style="stroke:#000000;stroke-width:1.5;"/><line style="stroke:#000000;stroke-width:1.5;" x1="2008" x2="2018" y1="375.1094" y2="365.1094"/><line style="stroke:#000000;stroke-width:1.5;" x1="1247" x2="2008" y1="375.1094" y2="375.1094"/><line style="stroke:#000000;stroke-width:1.5;" x1="2008" x2="2008" y1="375.1094" y2="740.1094"/><text fill="#000000" font-family="sans-serif" font-size="14" font-weight="bold" lengthAdjust="spacing" textLength="134" x="1561.5" y="391.6445">Context Collection</text><!--MD5=[834e98962f20b09c78cd8e6ce75813d5]
cluster Context--><rect fill="#1E90FF" filter="url(#f1mwhp9j2r6alx)" height="303" style="stroke:#000000;stroke-width:1.5;" width="723" x="1271" y="413.1094"/><path d="M1337,413.1094 L1337,422.5977 L1327,432.5977 L1271,432.5977 " fill="none" style="stroke:#000000;stroke-width:1.5;"/><text fill="#000000" font-family="sans-serif" font-size="14" font-weight="bold" lengthAdjust="spacing" textLength="56" x="1274" y="427.6445">Context</text><!--MD5=[e81134d7a5acd63a765ae6239ea37c7f]
cluster Wrapper Collection--><polygon fill="#D3D3D3" filter="url(#f1mwhp9j2r6alx)" points="1407,466.1094,1417,456.1094,1970,456.1094,1970,682.1094,1960,692.1094,1407,692.1094,1407,466.1094" style="stroke:#000000;stroke-width:1.5;"/><line style="stroke:#000000;stroke-width:1.5;" x1="1960" x2="1970" y1="466.1094" y2="456.1094"/><line style="stroke:#000000;stroke-width:1.5;" x1="1407" x2="1960" y1="466.1094" y2="466.1094"/><line style="stroke:#000000;stroke-width:1.5;" x1="1960" x2="1960" y1="466.1094" y2="692.1094"/><text fill="#000000" font-family="sans-serif" font-size="14" font-weight="bold" lengthAdjust="spacing" textLength="137" x="1616" y="482.6445">Wrapper Collection</text><!--MD5=[a0b2f82bfac44a56307697cea79fa179]
cluster Wrapper--><rect fill="#00FFFF" filter="url(#f1mwhp9j2r6alx)" height="164" style="stroke:#000000;stroke-width:1.5;" width="515" x="1431" y="504.1094"/><path d="M1500,504.1094 L1500,513.5977 L1490,523.5977 L1431,523.5977 " fill="none" style="stroke:#000000;stroke-width:1.5;"/><text fill="#000000" font-family="sans-serif" font-size="14" font-weight="bold" lengthAdjust="spacing" textLength="59" x="1434" y="518.6445">Wrapper</text><!--MD5=[c5fe480145308bba56714e69ae8a22b2]
cluster Servlet API--><rect fill="#FFFFFF" filter="url(#f1mwhp9j2r6alx)" height="97" style="stroke:#000000;stroke-width:1.5;" width="269" x="1653" y="547.1094"/><rect fill="#FFFFFF" height="10" style="stroke:#000000;stroke-width:1.5;" width="15" x="1902" y="552.1094"/><rect fill="#FFFFFF" height="2" style="stroke:#000000;stroke-width:1.5;" width="4" x="1900" y="554.1094"/><rect fill="#FFFFFF" height="2" style="stroke:#000000;stroke-width:1.5;" width="4" x="1900" y="558.1094"/><text fill="#000000" font-family="sans-serif" font-size="14" font-weight="bold" lengthAdjust="spacing" textLength="78" x="1748.5" y="573.6445">Servlet API</text><!--MD5=[d10c0fc188658aa905e9b53266af4542]
cluster wp--><rect fill="#FF69B4" filter="url(#f1mwhp9j2r6alx)" height="87" style="stroke:#000000;stroke-width:1.5;" width="88" x="1455" y="552.1094"/><path d="M1523,552.1094 L1523,561.5977 L1513,571.5977 L1455,571.5977 " fill="none" style="stroke:#000000;stroke-width:1.5;"/><text fill="#000000" font-family="sans-serif" font-size="14" font-weight="bold" lengthAdjust="spacing" textLength="58" x="1458" y="566.6445">Pipeline</text><!--MD5=[4797382622b9f7953b1fdb3357db8b4e]
cluster cp--><rect fill="#FF69B4" filter="url(#f1mwhp9j2r6alx)" height="87" style="stroke:#000000;stroke-width:1.5;" width="88" x="1295" y="552.1094"/><path d="M1363,552.1094 L1363,561.5977 L1353,571.5977 L1295,571.5977 " fill="none" style="stroke:#000000;stroke-width:1.5;"/><text fill="#000000" font-family="sans-serif" font-size="14" font-weight="bold" lengthAdjust="spacing" textLength="58" x="1298" y="566.6445">Pipeline</text><!--MD5=[9ea8e0396e4e84f9dd53112c956ff8e8]
cluster hp--><rect fill="#FF69B4" filter="url(#f1mwhp9j2r6alx)" height="87" style="stroke:#000000;stroke-width:1.5;" width="88" x="1135" y="552.1094"/><path d="M1203,552.1094 L1203,561.5977 L1193,571.5977 L1135,571.5977 " fill="none" style="stroke:#000000;stroke-width:1.5;"/><text fill="#000000" font-family="sans-serif" font-size="14" font-weight="bold" lengthAdjust="spacing" textLength="58" x="1138" y="566.6445">Pipeline</text><!--MD5=[d8cb223f479215e833e95c478c289ad5]
cluster ep--><rect fill="#FF69B4" filter="url(#f1mwhp9j2r6alx)" height="87" style="stroke:#000000;stroke-width:1.5;" width="88" x="975" y="552.1094"/><path d="M1043,552.1094 L1043,561.5977 L1033,571.5977 L975,571.5977 " fill="none" style="stroke:#000000;stroke-width:1.5;"/><text fill="#000000" font-family="sans-serif" font-size="14" font-weight="bold" lengthAdjust="spacing" textLength="58" x="978" y="566.6445">Pipeline</text><!--MD5=[cd73fb4f9a9d1bb8968a3975b5fbd22d]
cluster coyote--><rect fill="#FFE4C4" filter="url(#f1mwhp9j2r6alx)" height="269" style="stroke:#000000;stroke-width:1.5;" width="824" x="79" y="439.6094"/><rect fill="#FFE4C4" height="10" style="stroke:#000000;stroke-width:1.5;" width="15" x="883" y="444.6094"/><rect fill="#FFE4C4" height="2" style="stroke:#000000;stroke-width:1.5;" width="4" x="881" y="446.6094"/><rect fill="#FFE4C4" height="2" style="stroke:#000000;stroke-width:1.5;" width="4" x="881" y="450.6094"/><text fill="#000000" font-family="sans-serif" font-size="14" font-weight="bold" lengthAdjust="spacing" textLength="216" x="383" y="466.1445">Coyote Connector Component</text><!--MD5=[b51002f184ff682f0159b6bd6a532369]
cluster connectors--><polygon fill="#D3D3D3" filter="url(#f1mwhp9j2r6alx)" points="652,509.1094,662,499.1094,879,499.1094,879,658.1094,869,668.1094,652,668.1094,652,509.1094" style="stroke:#000000;stroke-width:1.5;"/><line style="stroke:#000000;stroke-width:1.5;" x1="869" x2="879" y1="509.1094" y2="499.1094"/><line style="stroke:#000000;stroke-width:1.5;" x1="652" x2="869" y1="509.1094" y2="509.1094"/><line style="stroke:#000000;stroke-width:1.5;" x1="869" x2="869" y1="509.1094" y2="668.1094"/><text fill="#000000" font-family="sans-serif" font-size="14" font-weight="bold" lengthAdjust="spacing" textLength="151" x="686" y="525.6445">Connector Collection</text><!--MD5=[706f66216528748e529aff05074e0bfc]
cluster connector--><rect fill="#FF7F50" filter="url(#f1mwhp9j2r6alx)" height="97" style="stroke:#000000;stroke-width:1.5;" width="176" x="679" y="547.1094"/><path d="M762,547.1094 L762,556.5977 L752,566.5977 L679,566.5977 " fill="none" style="stroke:#000000;stroke-width:1.5;"/><text fill="#000000" font-family="sans-serif" font-size="14" font-weight="bold" lengthAdjust="spacing" textLength="73" x="682" y="561.6445">Connector</text><!--MD5=[e81ed556359930d09f1e755d83beec6a]
cluster ProtocolHandler Collection--><polygon fill="#D3D3D3" filter="url(#f1mwhp9j2r6alx)" points="103,492.6094,113,482.6094,625,482.6094,625,674.6094,615,684.6094,103,684.6094,103,492.6094" style="stroke:#000000;stroke-width:1.5;"/><line style="stroke:#000000;stroke-width:1.5;" x1="615" x2="625" y1="492.6094" y2="482.6094"/><line style="stroke:#000000;stroke-width:1.5;" x1="103" x2="615" y1="492.6094" y2="492.6094"/><line style="stroke:#000000;stroke-width:1.5;" x1="615" x2="615" y1="492.6094" y2="684.6094"/><text fill="#000000" font-family="sans-serif" font-size="14" font-weight="bold" lengthAdjust="spacing" textLength="194" x="263" y="509.1445">ProtocolHandler Collection</text><!--MD5=[c891dccdba8e068815079b038c78ebbe]
cluster protocolHandler--><rect fill="#9ACD32" filter="url(#f1mwhp9j2r6alx)" height="130" style="stroke:#000000;stroke-width:1.5;" width="474" x="127" y="530.6094"/><path d="M253,530.6094 L253,540.0977 L243,550.0977 L127,550.0977 " fill="none" style="stroke:#000000;stroke-width:1.5;"/><text fill="#000000" font-family="sans-serif" font-size="14" font-weight="bold" lengthAdjust="spacing" textLength="116" x="130" y="545.1445">ProtocolHandler</text><!--MD5=[3e14b47a04f9138867157f9113852c53]
entity Jasper--><rect fill="#FEFECE" filter="url(#f1mwhp9j2r6alx)" height="46.4883" style="stroke:#A80036;stroke-width:1.5;" width="82" x="1482" y="883.1094"/><rect fill="#FEFECE" height="10" style="stroke:#A80036;stroke-width:1.5;" width="15" x="1544" y="888.1094"/><rect fill="#FEFECE" height="2" style="stroke:#A80036;stroke-width:1.5;" width="4" x="1542" y="890.1094"/><rect fill="#FEFECE" height="2" style="stroke:#A80036;stroke-width:1.5;" width="4" x="1542" y="894.1094"/><text fill="#000000" font-family="sans-serif" font-size="14" lengthAdjust="spacing" textLength="42" x="1497" y="916.6445">Jasper</text><!--MD5=[e9b0ee1b4dbad402911eb1d58b39d535]
entity JMX--><rect fill="#FEFECE" filter="url(#f1mwhp9j2r6alx)" height="46.4883" style="stroke:#A80036;stroke-width:1.5;" width="65" x="1599.5" y="883.1094"/><rect fill="#FEFECE" height="10" style="stroke:#A80036;stroke-width:1.5;" width="15" x="1644.5" y="888.1094"/><rect fill="#FEFECE" height="2" style="stroke:#A80036;stroke-width:1.5;" width="4" x="1642.5" y="890.1094"/><rect fill="#FEFECE" height="2" style="stroke:#A80036;stroke-width:1.5;" width="4" x="1642.5" y="894.1094"/><text fill="#000000" font-family="sans-serif" font-size="14" lengthAdjust="spacing" textLength="25" x="1614.5" y="916.6445">JMX</text><!--MD5=[c37df8c2fa1b5f86dd58dff9a3868e14]
entity EL--><rect fill="#FEFECE" filter="url(#f1mwhp9j2r6alx)" height="46.4883" style="stroke:#A80036;stroke-width:1.5;" width="55" x="1699.5" y="883.1094"/><rect fill="#FEFECE" height="10" style="stroke:#A80036;stroke-width:1.5;" width="15" x="1734.5" y="888.1094"/><rect fill="#FEFECE" height="2" style="stroke:#A80036;stroke-width:1.5;" width="4" x="1732.5" y="890.1094"/><rect fill="#FEFECE" height="2" style="stroke:#A80036;stroke-width:1.5;" width="4" x="1732.5" y="894.1094"/><text fill="#000000" font-family="sans-serif" font-size="14" lengthAdjust="spacing" textLength="15" x="1714.5" y="916.6445">EL</text><!--MD5=[5950aecbf9e9a33f04aa728fa2e50c55]
entity Logging--><rect fill="#FEFECE" filter="url(#f1mwhp9j2r6alx)" height="46.4883" style="stroke:#A80036;stroke-width:1.5;" width="96" x="1790" y="883.1094"/><rect fill="#FEFECE" height="10" style="stroke:#A80036;stroke-width:1.5;" width="15" x="1866" y="888.1094"/><rect fill="#FEFECE" height="2" style="stroke:#A80036;stroke-width:1.5;" width="4" x="1864" y="890.1094"/><rect fill="#FEFECE" height="2" style="stroke:#A80036;stroke-width:1.5;" width="4" x="1864" y="894.1094"/><text fill="#000000" font-family="sans-serif" font-size="14" lengthAdjust="spacing" textLength="56" x="1805" y="916.6445">Logging</text><!--MD5=[80ceb6aaded45058e3204fdb17f5ebaa]
entity ...--><rect fill="#FEFECE" filter="url(#f1mwhp9j2r6alx)" height="46.4883" style="stroke:#A80036;stroke-width:1.5;" width="52" x="1921" y="883.1094"/><rect fill="#FEFECE" height="10" style="stroke:#A80036;stroke-width:1.5;" width="15" x="1953" y="888.1094"/><rect fill="#FEFECE" height="2" style="stroke:#A80036;stroke-width:1.5;" width="4" x="1951" y="890.1094"/><rect fill="#FEFECE" height="2" style="stroke:#A80036;stroke-width:1.5;" width="4" x="1951" y="894.1094"/><text fill="#000000" font-family="sans-serif" font-size="14" lengthAdjust="spacing" textLength="12" x="1936" y="916.6445">...</text><!--MD5=[f331d493c352d3de382c5042636ddd87]
entity servlet--><rect fill="#FEFECE" filter="url(#f1mwhp9j2r6alx)" height="46.4883" style="stroke:#A80036;stroke-width:1.5;" width="86" x="1820" y="582.1094"/><rect fill="#FEFECE" height="10" style="stroke:#A80036;stroke-width:1.5;" width="15" x="1886" y="587.1094"/><rect fill="#FEFECE" height="2" style="stroke:#A80036;stroke-width:1.5;" width="4" x="1884" y="589.1094"/><rect fill="#FEFECE" height="2" style="stroke:#A80036;stroke-width:1.5;" width="4" x="1884" y="593.1094"/><text fill="#000000" font-family="sans-serif" font-size="14" lengthAdjust="spacing" textLength="46" x="1835" y="615.6445">Servlet</text><!--MD5=[c3516ffe51d4530eedf6db582fa00f95]
entity filterChain--><rect fill="#FEFECE" filter="url(#f1mwhp9j2r6alx)" height="46.4883" style="stroke:#A80036;stroke-width:1.5;" width="115" x="1669.5" y="582.1094"/><rect fill="#FEFECE" height="10" style="stroke:#A80036;stroke-width:1.5;" width="15" x="1764.5" y="587.1094"/><rect fill="#FEFECE" height="2" style="stroke:#A80036;stroke-width:1.5;" width="4" x="1762.5" y="589.1094"/><rect fill="#FEFECE" height="2" style="stroke:#A80036;stroke-width:1.5;" width="4" x="1762.5" y="593.1094"/><text fill="#000000" font-family="sans-serif" font-size="14" lengthAdjust="spacing" textLength="75" x="1684.5" y="615.6445">FilterChain</text><!--MD5=[264b9fcfc253f36ef65d3184bbb30d79]
entity wv--><rect fill="#FEFECE" filter="url(#f1mwhp9j2r6alx)" height="32.4883" style="stroke:#000000;stroke-width:1.5;" width="52" x="1475" y="591.1094"/><rect fill="#FEFECE" height="32.4883" style="stroke:#000000;stroke-width:1.5;" width="52" x="1471" y="587.1094"/><text fill="#000000" font-family="sans-serif" font-size="14" lengthAdjust="spacing" textLength="36" x="1479" y="608.6445">Valve</text><!--MD5=[6a310a3e99d6016a148bf5e7a91da69e]
entity cv--><rect fill="#FEFECE" filter="url(#f1mwhp9j2r6alx)" height="32.4883" style="stroke:#000000;stroke-width:1.5;" width="52" x="1315" y="591.1094"/><rect fill="#FEFECE" height="32.4883" style="stroke:#000000;stroke-width:1.5;" width="52" x="1311" y="587.1094"/><text fill="#000000" font-family="sans-serif" font-size="14" lengthAdjust="spacing" textLength="36" x="1319" y="608.6445">Valve</text><!--MD5=[09dceff7ba41a18ac14c6be3f7eb816c]
entity hv--><rect fill="#FEFECE" filter="url(#f1mwhp9j2r6alx)" height="32.4883" style="stroke:#000000;stroke-width:1.5;" width="52" x="1155" y="591.1094"/><rect fill="#FEFECE" height="32.4883" style="stroke:#000000;stroke-width:1.5;" width="52" x="1151" y="587.1094"/><text fill="#000000" font-family="sans-serif" font-size="14" lengthAdjust="spacing" textLength="36" x="1159" y="608.6445">Valve</text><!--MD5=[f26abf473a0724efb261c274585e8078]
entity ev--><rect fill="#FEFECE" filter="url(#f1mwhp9j2r6alx)" height="32.4883" style="stroke:#000000;stroke-width:1.5;" width="52" x="995" y="591.1094"/><rect fill="#FEFECE" height="32.4883" style="stroke:#000000;stroke-width:1.5;" width="52" x="991" y="587.1094"/><text fill="#000000" font-family="sans-serif" font-size="14" lengthAdjust="spacing" textLength="36" x="999" y="608.6445">Valve</text><!--MD5=[7e2de3f8654bd2333c05477654216131]
entity coyoteAdapter--><rect fill="#FEFECE" filter="url(#f1mwhp9j2r6alx)" height="46.4883" style="stroke:#A80036;stroke-width:1.5;" width="143" x="695.5" y="582.1094"/><rect fill="#FEFECE" height="10" style="stroke:#A80036;stroke-width:1.5;" width="15" x="818.5" y="587.1094"/><rect fill="#FEFECE" height="2" style="stroke:#A80036;stroke-width:1.5;" width="4" x="816.5" y="589.1094"/><rect fill="#FEFECE" height="2" style="stroke:#A80036;stroke-width:1.5;" width="4" x="816.5" y="593.1094"/><text fill="#000000" font-family="sans-serif" font-size="14" lengthAdjust="spacing" textLength="103" x="710.5" y="615.6445">CoyoteAdapter</text><!--MD5=[453ec97e7ad26416e5cda754d1a4536e]
entity endpoint--><rect fill="#FEFECE" filter="url(#f1mwhp9j2r6alx)" height="79.4648" style="stroke:#A80036;stroke-width:1.5;" width="162" x="143" y="565.6094"/><rect fill="#FEFECE" height="10" style="stroke:#A80036;stroke-width:1.5;" width="15" x="285" y="570.6094"/><rect fill="#FEFECE" height="2" style="stroke:#A80036;stroke-width:1.5;" width="4" x="283" y="572.6094"/><rect fill="#FEFECE" height="2" style="stroke:#A80036;stroke-width:1.5;" width="4" x="283" y="576.6094"/><text fill="#000000" font-family="sans-serif" font-size="14" lengthAdjust="spacing" textLength="118" x="158" y="599.1445">AbstractEndPoint</text><text fill="#000000" font-family="sans-serif" font-size="14" lengthAdjust="spacing" textLength="0" x="162" y="615.6328"/><text fill="#000000" font-family="sans-serif" font-size="14" lengthAdjust="spacing" textLength="55" x="158" y="632.1211">"Socket"</text><!--MD5=[bb115c575b04a96deff8efcb0782c50a]
entity processor--><rect fill="#FEFECE" filter="url(#f1mwhp9j2r6alx)" height="79.4648" style="stroke:#A80036;stroke-width:1.5;" width="121" x="340.5" y="565.6094"/><rect fill="#FEFECE" height="10" style="stroke:#A80036;stroke-width:1.5;" width="15" x="441.5" y="570.6094"/><rect fill="#FEFECE" height="2" style="stroke:#A80036;stroke-width:1.5;" width="4" x="439.5" y="572.6094"/><rect fill="#FEFECE" height="2" style="stroke:#A80036;stroke-width:1.5;" width="4" x="439.5" y="576.6094"/><text fill="#000000" font-family="sans-serif" font-size="14" lengthAdjust="spacing" textLength="67" x="355.5" y="599.1445">Processor</text><text fill="#000000" font-family="sans-serif" font-size="14" lengthAdjust="spacing" textLength="0" x="359.5" y="615.6328"/><text fill="#000000" font-family="sans-serif" font-size="14" lengthAdjust="spacing" textLength="81" x="355.5" y="632.1211">"HTTP | AJP"</text><!--MD5=[f53c86c3f157d6be872cb31537443491]
entity adapter--><ellipse cx="576" cy="605.1094" fill="#FEFECE" filter="url(#f1mwhp9j2r6alx)" rx="8" ry="8" style="stroke:#A80036;stroke-width:1.5;"/><text fill="#000000" font-family="sans-serif" font-size="14" lengthAdjust="spacing" textLength="69" x="541.5" y="635.6445">«Adapter»</text><!--MD5=[ea78c62fef6b6748ee5a4cfca5412c2a]
link endpoint to processor--><path d="M305.24,605.1094 C315.22,605.1094 325.2,605.1094 335.18,605.1094 " fill="none" id="endpoint-to-processor" style="stroke:#FF0000;stroke-width:1.0;"/><polygon fill="#FF0000" points="340.4,605.1094,331.4,601.1094,335.4,605.1094,331.4,609.1094,340.4,605.1094" style="stroke:#FF0000;stroke-width:1.0;"/><!--MD5=[276fddab4a9e7be59374ae865597bd20]
link processor to adapter--><path d="M461.72,605.1094 C497.57,605.1094 540.07,605.1094 561.74,605.1094 " fill="none" id="processor-to-adapter" style="stroke:#FF0000;stroke-width:3.0;"/><polygon fill="#FF0000" points="566.78,605.1094,557.78,601.1094,561.78,605.1094,557.78,609.1094,566.78,605.1094" style="stroke:#FF0000;stroke-width:3.0;"/><text fill="#FF0000" font-family="sans-serif" font-size="15" lengthAdjust="spacing" textLength="50" x="489.25" y="577.6113">Coyote</text><text fill="#FF0000" font-family="sans-serif" font-size="18" lengthAdjust="spacing" textLength="69" x="479.75" y="598.1777">Request</text><!--MD5=[7eda878d5459fa9da9048984e8e5cd03]
reverse link adapter to coyoteAdapter--><path d="M605.25,605.1094 C629.14,605.1094 663.95,605.1094 695.16,605.1094 " fill="none" id="adapter-backto-coyoteAdapter" style="stroke:#800000;stroke-width:1.0;stroke-dasharray:7.0,7.0;"/><polygon fill="none" points="605.21,612.1094,585.21,605.1094,605.21,598.1094,605.21,612.1094" style="stroke:#800000;stroke-width:1.0;"/><text fill="#800000" font-family="sans-serif" font-size="13" lengthAdjust="spacing" textLength="74" x="603.25" y="598.6777">Implements</text><!--MD5=[b241604dc8181efa1b57c924f18fd13e]
link coyoteAdapter to ev--><path d="M838.54,605.1094 C886.8,605.1094 948.27,605.1094 985.58,605.1094 " fill="none" id="coyoteAdapter-to-ev" style="stroke:#0000FF;stroke-width:6.0;"/><polygon fill="#0000FF" points="990.9,605.1094,981.9,601.1094,985.9,605.1094,981.9,609.1094,990.9,605.1094" style="stroke:#0000FF;stroke-width:6.0;"/><text fill="#0000FF" font-family="sans-serif" font-size="15" lengthAdjust="spacing" textLength="57" x="886.25" y="577.6113">Catalina</text><text fill="#0000FF" font-family="sans-serif" font-size="18" lengthAdjust="spacing" textLength="69" x="880.25" y="598.1777">Request</text><!--MD5=[ad02cdcce61cfaec9631d8662589a8b1]
link ev to hv--><path d="M1047.12,605.1094 C1079.97,605.1094 1112.81,605.1094 1145.65,605.1094 " fill="none" id="ev-to-hv" style="stroke:#0000FF;stroke-width:6.0;"/><polygon fill="#0000FF" points="1150.93,605.1094,1141.93,601.1094,1145.93,605.1094,1141.93,609.1094,1150.93,605.1094" style="stroke:#0000FF;stroke-width:6.0;"/><!--MD5=[b7376eaa687d1e7a1d3d06128bd81a1e]
link hv to cv--><path d="M1207.12,605.1094 C1239.97,605.1094 1272.81,605.1094 1305.65,605.1094 " fill="none" id="hv-to-cv" style="stroke:#0000FF;stroke-width:6.0;"/><polygon fill="#0000FF" points="1310.93,605.1094,1301.93,601.1094,1305.93,605.1094,1301.93,609.1094,1310.93,605.1094" style="stroke:#0000FF;stroke-width:6.0;"/><!--MD5=[920bbc2bd3d1a8d3248cd0802469d6be]
link cv to wv--><path d="M1367.12,605.1094 C1399.97,605.1094 1432.81,605.1094 1465.65,605.1094 " fill="none" id="cv-to-wv" style="stroke:#0000FF;stroke-width:6.0;"/><polygon fill="#0000FF" points="1470.93,605.1094,1461.93,601.1094,1465.93,605.1094,1461.93,609.1094,1470.93,605.1094" style="stroke:#0000FF;stroke-width:6.0;"/><!--MD5=[33e22e8092ac04dfcda47b92b4e86a72]
link wv to filterChain--><path d="M1527.42,605.1094 C1561.44,605.1094 1619.43,605.1094 1664.16,605.1094 " fill="none" id="wv-to-filterChain" style="stroke:#FF00FF;stroke-width:3.0;"/><polygon fill="#FF00FF" points="1669.27,605.1094,1660.27,601.1094,1664.27,605.1094,1660.27,609.1094,1669.27,605.1094" style="stroke:#FF00FF;stroke-width:3.0;"/><text fill="#FF00FF" font-family="sans-serif" font-size="15" lengthAdjust="spacing" textLength="57" x="1569.75" y="580.6113">Catalina</text><text fill="#FF00FF" font-family="sans-serif" font-size="15" lengthAdjust="spacing" textLength="106" x="1545.25" y="598.2773">RequestFacade</text><!--MD5=[6192cf66aef5c9fc162d52d1e60cd084]
link filterChain to servlet--><path d="M1784.64,605.1094 C1794.63,605.1094 1804.62,605.1094 1814.62,605.1094 " fill="none" id="filterChain-to-servlet" style="stroke:#FF00FF;stroke-width:3.0;"/><polygon fill="#FF00FF" points="1819.84,605.1094,1810.84,601.1094,1814.84,605.1094,1810.84,609.1094,1819.84,605.1094" style="stroke:#FF00FF;stroke-width:3.0;"/><!--MD5=[02197ce30cca5a2576e4e6992a257710]
link filterChain to Jasper--><!--MD5=[97030004e7e43ed0a500e19d48560a4c]
link filterChain to JMX--><!--MD5=[c19b14a5d3b9fa502b9698a13607997f]
link filterChain to EL--><!--MD5=[5f9ce19bbbaba261376b747c1a8df64a]
link filterChain to Logging--><!--MD5=[73f9db0aa36a2d9353fa84893f3f9cbb]
link filterChain to ...--><text fill="#888888" font-family="sans-serif" font-size="10" lengthAdjust="spacing" textLength="61" x="1062" y="1013.7773">@ReionChan</text></g></svg>